STARTFONT 2.1
FONT -Monotype-Century Gothic-Bold-I-Normal--50-360-100-100-P-278-iso8859-2
SIZE 36 100 100
FONTBOUNDINGBOX 73 60 -11 -11

STARTPROPERTIES 24
FOUNDRY "Monotype"
FAMILY_NAME "Century Gothic"
WEIGHT_NAME "Bold"
SLANT "I"
SETWIDTH_NAME "Normal"
ADD_STYLE_NAME ""
PIXEL_SIZE 50
POINT_SIZE 360
RESOLUTION_X 100
RESOLUTION_Y 100
SPACING "P"
AVERAGE_WIDTH 278
CHARSET_REGISTRY "iso8859"
CHARSET_ENCODING "2"
FACE_NAME "Century Gothic Bold Italic ISO Latin2"
_DEC_DEVICE_FONTNAMES "PS=centurygothic-bit-lat2"
COPYRIGHT "Copyright (c) 1994 Monotype Typography Ltd."
CAP_HEIGHT 45
X_HEIGHT 33
WEIGHT 10
QUAD_WIDTH 29
DEFAULT_CHAR 160
FONT_DESCENT 13
FONT_ASCENT 51
ENDPROPERTIES

CHARS 191

STARTCHAR space
ENCODING 32
SWIDTH 280 0
DWIDTH 14 0
BBX 0 0 0 0
BITMAP
ENDCHAR

STARTCHAR exclam
ENCODING 33
SWIDTH 280 0
DWIDTH 14 0
BBX 15 38 -1 -1
BITMAP
01FC
01FC
01FC
01F8
01F8
03F8
03F8
03F8
03F8
03F8
03F0
03F0
07F0
07F0
07F0
07F0
07F0
07E0
07E0
07E0
0FE0
0FE0
0FE0
0FE0
0FC0
0FC0
0FC0
0000
0000
0000
0F00
1F80
3FC0
3FC0
3FC0
3FC0
1F80
0F00
ENDCHAR

STARTCHAR quotedbl
ENCODING 34
SWIDTH 360 0
DWIDTH 18 0
BBX 19 12 1 25
BITMAP
7F1FC0
7E1F80
7E1F80
7E1F80
3E0F80
3E0F80
3E0F80
3E0F80
3E0F80
3E0F80
3C0F00
3C0F00
ENDCHAR

STARTCHAR numbersign
ENCODING 35
SWIDTH 600 0
DWIDTH 30 0
BBX 30 37 0 0
BITMAP
001E0F80
001E0F80
003E0F80
003E0F80
003E0F80
003E1F00
003E1F00
003C1F00
003C1F00
007C1F00
007C1F00
1FFFFFF8
1FFFFFF8
1FFFFFF8
1FFFFFF8
1FFFFFF8
00F83E00
00F83E00
00F83E00
00F87C00
3FFFFFE0
3FFFFFE0
3FFFFFE0
3FFFFFE0
3FFFFFE0
01F07800
01F0F800
01F0F800
01E0F800
03E0F800
03E0F800
03E0F800
03E0F000
03E1F000
03E1F000
03C1F000
07C1F000
ENDCHAR

STARTCHAR dollar
ENCODING 36
SWIDTH 560 0
DWIDTH 28 0
BBX 30 46 -2 -7
BITMAP
00007C00
00007800
0001F800
000FFF00
003FFF80
007FFFE0
007FFFF0
00FFFFF0
01FE07E0
01FC03C0
01F80180
01F80000
01F80000
01FC0000
01FE0000
01FF8000
00FFC000
007FF000
003FF800
001FFE00
000FFF00
0003FF80
0001FF80
00007FC0
00003FE0
00001FE0
00000FE0
000007E0
000007E0
010007E0
078007E0
1F800FE0
3FC01FE0
1FF03FC0
1FFFFF80
0FFFFF80
07FFFF00
03FFFE00
00FFF800
003FC000
000F0000
001F0000
001F0000
001E0000
001E0000
001E0000
ENDCHAR

STARTCHAR percent
ENCODING 37
SWIDTH 860 0
DWIDTH 43 0
BBX 42 40 0 -3
BITMAP
00FF00003F00
03FFF803FE00
07FFFFFFFC00
0FFFFFFFF800
1F87FFFFF000
1F03FFFBF000
3E03E003E000
3E01E007C000
3C01E00F8000
3C03E01F0000
3E03E03E0000
3E07C07C0000
3F0FC0F80000
1FFF80F80000
0FFF01F00000
07FE03E00000
03F807C00000
00000F800000
00001F000000
00003E000000
00007E000000
00007C07F000
0000F81FFC00
0001F03FFE00
0003E07FFE00
0007C0FC3F00
000F80F81F00
001F81F00F00
001F01F00F00
003E01E00F00
007C01E01F00
00F801F01F00
01F001F03E00
03E001F87E00
07C000FFFC00
07C0007FF800
0F80003FF000
1F00001FC000
3E0000000000
7C0000000000
ENDCHAR

STARTCHAR ampersand
ENCODING 38
SWIDTH 680 0
DWIDTH 34 0
BBX 34 35 0 -1
BITMAP
0001F80000
0007FE0000
000FFF0000
001FFF8000
003FFFC000
007FFFC000
007F1FC000
007E0FC000
007E0FC000
007E1FC000
007F1FC000
007F3F8000
003FFF8000
003FFF0000
003FFE0000
001FFC0000
007FF80000
00FFF00000
03FFF00000
07FFF80000
0FFFFC1800
1FF9FC3800
1FE1FEFC00
3FC0FFFE00
3F807FFF00
3F803FFE00
3F803FF800
3F80FFF000
3FC3FFF000
3FFFFFF800
1FFFFFFC00
0FFFFFFE00
07FFF1FE00
03FFC0FF00
00FE000000
ENDCHAR

STARTCHAR quoteright
ENCODING 39
SWIDTH 280 0
DWIDTH 14 0
BBX 10 14 4 23
BITMAP
1F80
1F80
1F80
3F00
3F00
3F00
3F00
0F00
0E00
1E00
1C00
3C00
3800
1000
ENDCHAR

STARTCHAR parenleft
ENCODING 40
SWIDTH 380 0
DWIDTH 19 0
BBX 22 48 3 -11
BITMAP
000FF0
001FE0
003FC0
007F80
007F00
00FF00
01FE00
01FC00
03FC00
03F800
07F800
07F000
07F000
0FE000
0FE000
0FC000
1FC000
1FC000
1FC000
3F8000
3F8000
3F8000
3F8000
3F0000
3F0000
7F0000
7F0000
7F0000
7F0000
7F0000
7F0000
7F0000
7F0000
7F0000
7F0000
7F0000
7F8000
3F8000
3F8000
3F8000
3FC000
1FC000
1FE000
1FE000
0FF000
0FF000
07F800
07F800
ENDCHAR

STARTCHAR parenright
ENCODING 41
SWIDTH 380 0
DWIDTH 19 0
BBX 23 48 -7 -11
BITMAP
007F80
007FC0
003FC0
001FC0
001FE0
000FE0
000FF0
000FF0
0007F0
0007F0
0007F8
0003F8
0003F8
0003F8
0003F8
0003F8
0003F8
0003F8
0003F8
0003F8
0003F8
0003F8
0003F8
0003F8
0003F0
0007F0
0007F0
0007F0
0007F0
0007E0
000FE0
000FE0
000FE0
001FC0
001FC0
001FC0
003F80
003F80
007F00
00FF00
00FE00
01FE00
03FC00
03F800
07F800
0FF000
1FE000
3FC000
ENDCHAR

STARTCHAR asterisk
ENCODING 42
SWIDTH 440 0
DWIDTH 22 0
BBX 23 19 1 18
BITMAP
007E00
007C00
047C00
0E7C60
1F38F0
1FB9F0
3FBBF8
3FFFF8
03FF80
007C00
07FF80
3FFFF8
3FBFF8
1F3BF0
1E38E0
0C7C60
007C00
007C00
007C00
ENDCHAR

STARTCHAR plus
ENCODING 43
SWIDTH 600 0
DWIDTH 30 0
BBX 28 24 1 6
BITMAP
001F8000
001F8000
001F8000
001F8000
001F8000
001F8000
001F8000
001F8000
001F8000
3FFFFFC0
3FFFFFC0
3FFFFFC0
3FFFFFC0
3FFFFFC0
3FFFFFC0
001F8000
001F8000
001F8000
001F8000
001F8000
001F8000
001F8000
001F8000
001F8000
ENDCHAR

STARTCHAR comma
ENCODING 44
SWIDTH 280 0
DWIDTH 14 0
BBX 13 11 -3 -5
BITMAP
0300
03C0
07F0
07E0
0FC0
0F80
1F80
1F00
3E00
3C00
0800
ENDCHAR

STARTCHAR minus
ENCODING 45
SWIDTH 600 0
DWIDTH 30 0
BBX 28 6 1 15
BITMAP
3FFFFFC0
3FFFFFC0
3FFFFFC0
3FFFFFC0
3FFFFFC0
3FFFFFC0
ENDCHAR

STARTCHAR period
ENCODING 46
SWIDTH 280 0
DWIDTH 14 0
BBX 12 8 -1 -1
BITMAP
0F00
1F80
3FC0
3FC0
3FC0
3FC0
1F80
0F00
ENDCHAR

STARTCHAR slash
ENCODING 47
SWIDTH 460 0
DWIDTH 23 0
BBX 23 43 0 -6
BITMAP
00007C
000078
0000F8
0000F8
0000F0
0001F0
0001E0
0003E0
0003E0
0003C0
0007C0
0007C0
000780
000F80
000F00
001F00
001F00
001E00
003E00
003E00
003C00
007C00
007800
00F800
00F800
00F000
01F000
01F000
01E000
03E000
03C000
07C000
07C000
078000
0F8000
0F8000
0F0000
1F0000
1E0000
3E0000
3E0000
3C0000
7C0000
ENDCHAR

STARTCHAR zero
ENCODING 48
SWIDTH 560 0
DWIDTH 28 0
BBX 28 38 0 -1
BITMAP
0007F000
001FF800
007FFE00
00FFFE00
01FFFF00
01FFFF80
03FC7F80
07F83F80
07F01FC0
0FE01FC0
0FE00FC0
0FE00FC0
1FC00FC0
1FC00FC0
1FC00FC0
1F800FC0
3F800FC0
3F800FC0
3F801FC0
3F801FC0
3F001FC0
3F001FC0
3F001F80
3F001F80
3F003F80
3F003F80
3F003F00
3F007F00
3F807F00
3F80FE00
1F81FE00
1FC3FC00
1FFFF800
0FFFF800
0FFFF000
07FFC000
03FF8000
00FC0000
ENDCHAR

STARTCHAR one
ENCODING 49
SWIDTH 560 0
DWIDTH 28 0
BBX 16 36 6 0
BITMAP
0FFE
0FFC
1FFC
1FFC
1FFC
3FFC
01FC
01FC
01FC
01F8
01F8
01F8
03F8
03F8
03F8
03F8
03F0
03F0
03F0
03F0
07F0
07F0
07F0
07F0
07E0
07E0
07E0
0FE0
0FE0
0FE0
0FE0
0FC0
0FC0
0FC0
0FC0
1FC0
ENDCHAR

STARTCHAR two
ENCODING 50
SWIDTH 560 0
DWIDTH 28 0
BBX 28 37 -1 0
BITMAP
000FF000
003FFC00
007FFE00
00FFFF00
01FFFF80
01FFFF80
03FC3FC0
03F81FC0
07F01FC0
07F00FC0
07F00FC0
07F00FC0
00001FC0
00001FC0
00003F80
00003F80
00007F80
0000FF00
0001FE00
0001FE00
0003FC00
0007F800
000FF000
001FF000
003FE000
007FC000
00FF8000
01FF0000
03FE0000
07FC0000
0FF80000
1FFFFF80
3FFFFF80
3FFFFF00
3FFFFF00
3FFFFF00
3FFFFF00
ENDCHAR

STARTCHAR three
ENCODING 51
SWIDTH 560 0
DWIDTH 28 0
BBX 26 38 0 -1
BITMAP
000FE000
003FF800
007FFC00
00FFFE00
01FFFF00
03FFFF00
03F8FF80
07F03F80
07F03F80
07E03F80
00003F80
00003F00
00007F00
0000FF00
0007FE00
000FFC00
000FF800
000FF000
001FF800
001FFC00
0007FE00
0000FE00
00007F00
00007F00
00003F00
00003F00
7F003F00
7F003F00
7F007F00
3F007F00
3F80FE00
3FE3FE00
1FFFFC00
1FFFFC00
0FFFF800
07FFF000
03FFC000
00FF0000
ENDCHAR

STARTCHAR four
ENCODING 52
SWIDTH 560 0
DWIDTH 28 0
BBX 28 37 -1 0
BITMAP
00000FC0
00001FC0
00001FC0
00003FC0
00007FC0
0000FFC0
0001FFC0
0001FF80
0003FF80
0007FF80
000FFF80
000FFF80
001FDF80
003FBF80
007F3F80
007F3F00
00FE3F00
01FC3F00
03F83F00
07F83F00
07F03F00
0FE07F00
1FC07E00
3FC07E00
3FFFFFE0
3FFFFFE0
3FFFFFC0
3FFFFFC0
7FFFFFC0
7FFFFFC0
0000FC00
0000FC00
0000FC00
0000FC00
0000FC00
0000FC00
0001FC00
ENDCHAR

STARTCHAR five
ENCODING 53
SWIDTH 560 0
DWIDTH 28 0
BBX 30 37 -1 -1
BITMAP
001FFFF0
003FFFF0
003FFFF0
003FFFF0
003FFFE0
007FFFE0
007F0000
007E0000
007E0000
00FE0000
00FC0000
00FC0000
01FC0000
01FFF800
01FFFC00
01FFFE00
03FFFF00
03FFFF80
03FFFF80
07F87FC0
00703FC0
00001FC0
00001FC0
00001FC0
00001FC0
00001FC0
00001FC0
03001F80
0F803F80
3FC07F80
3FF0FF00
1FFFFF00
0FFFFE00
07FFFC00
03FFF800
01FFE000
003F8000
ENDCHAR

STARTCHAR six
ENCODING 54
SWIDTH 560 0
DWIDTH 28 0
BBX 27 38 0 -1
BITMAP
00008000
0001E000
0001F000
0003FC00
0007F800
0007F000
000FE000
001FE000
003FC000
003F8000
007F8000
00FF0000
00FE0000
01FC0000
03FC0000
03FFC000
07FFF000
07FFFC00
0FFFFE00
0FFFFE00
1FFFFF00
1FE0FF00
1FC07F80
3F803F80
3F801F80
3F001F80
3F001F80
3F001F80
3F803F80
3F803F80
1FC07F80
1FF1FF00
1FFFFF00
0FFFFE00
07FFFC00
03FFF800
01FFE000
007F8000
ENDCHAR

STARTCHAR seven
ENCODING 55
SWIDTH 560 0
DWIDTH 28 0
BBX 27 37 3 -1
BITMAP
1FFFFF80
1FFFFF80
1FFFFF80
3FFFFF80
3FFFFF80
3FFFFF00
00007F00
0000FE00
0000FE00
0001FC00
0003F800
0003F800
0007F000
0007F000
000FE000
000FE000
001FC000
003FC000
003F8000
007F0000
007F0000
00FE0000
00FE0000
01FC0000
01FC0000
03F80000
07F80000
07F00000
0FE00000
0FE00000
1FC00000
1FC00000
3F800000
7F800000
3F000000
0F000000
02000000
ENDCHAR

STARTCHAR eight
ENCODING 56
SWIDTH 560 0
DWIDTH 28 0
BBX 27 38 0 -1
BITMAP
000FE000
003FFC00
00FFFE00
01FFFF00
03FFFF80
03FFFF80
07FC7FC0
07F01FC0
07F01FC0
07E01FC0
07E01FC0
07F01F80
07F03F80
03F87F00
01FFFF00
01FFFC00
007FF800
01FFF000
03FFFC00
07FFFE00
0FF1FE00
1FC07F00
3F803F80
3F803F80
3F001F80
7F001F80
7F001F80
7F001F80
7F003F80
7F803F80
3FC07F80
3FE1FF00
3FFFFE00
1FFFFE00
0FFFFC00
07FFF800
03FFE000
007F8000
ENDCHAR

STARTCHAR nine
ENCODING 57
SWIDTH 560 0
DWIDTH 28 0
BBX 27 38 1 -1
BITMAP
003FC000
00FFF000
03FFF800
07FFFC00
0FFFFE00
0FFFFF00
1FF0FF00
1FC07F80
3F803F80
3F801F80
3F001F80
3F001F80
3F001F80
3F801F80
3F803F80
3FC07F00
1FE0FF00
1FFFFF00
0FFFFE00
0FFFFE00
03FFFC00
01FFFC00
007FF800
0007F800
0007F000
000FE000
001FE000
001FC000
003F8000
007F8000
00FF0000
00FE0000
01FC0000
03FC0000
03F80000
01F00000
00F00000
00200000
ENDCHAR

STARTCHAR colon
ENCODING 58
SWIDTH 280 0
DWIDTH 14 0
BBX 15 29 -1 -1
BITMAP
01E0
03F0
07F8
07F8
07F8
07F8
03F0
01E0
0000
0000
0000
0000
0000
0000
0000
0000
0000
0000
0000
0000
0000
0F80
1F80
3FC0
3FC0
3FC0
3FC0
1F80
0F00
ENDCHAR

STARTCHAR semicolon
ENCODING 59
SWIDTH 280 0
DWIDTH 14 0
BBX 17 32 -3 -4
BITMAP
007800
00FC00
01FE00
01FE00
01FE00
01FE00
00FC00
007800
000000
000000
000000
000000
000000
000000
000000
000000
000000
000000
000000
000000
000000
030000
03C000
07F000
07E000
0FC000
0FC000
1F8000
1F0000
3E0000
3E0000
0C0000
ENDCHAR

STARTCHAR less
ENCODING 60
SWIDTH 600 0
DWIDTH 30 0
BBX 28 30 1 3
BITMAP
00000040
000001C0
000007C0
00001FC0
00007FC0
0001FFC0
0007FF80
001FFE00
007FF800
01FFE000
03FFC000
0FFF0000
3FFC0000
3FF00000
3FC00000
3FC00000
3FF00000
3FFC0000
1FFE0000
07FF8000
01FFE000
007FF800
001FFE00
0007FF80
0001FFC0
00007FC0
00001FC0
000007C0
000001C0
00000040
ENDCHAR

STARTCHAR equal
ENCODING 61
SWIDTH 600 0
DWIDTH 30 0
BBX 28 16 1 10
BITMAP
3FFFFFC0
3FFFFFC0
3FFFFFC0
3FFFFFC0
3FFFFFC0
3FFFFFC0
00000000
00000000
00000000
00000000
3FFFFFC0
3FFFFFC0
3FFFFFC0
3FFFFFC0
3FFFFFC0
3FFFFFC0
ENDCHAR

STARTCHAR greater
ENCODING 62
SWIDTH 600 0
DWIDTH 30 0
BBX 28 30 1 3
BITMAP
20000000
38000000
3E000000
3F800000
3FE00000
3FF80000
1FFE0000
07FF8000
01FFE000
007FF800
003FFE00
000FFF80
0003FFC0
0000FFC0
00003FC0
00003FC0
0000FFC0
0001FFC0
0007FF80
001FFE00
007FF800
01FFE000
07FF8000
1FFE0000
3FF80000
3FE00000
3F800000
3E000000
38000000
20000000
ENDCHAR

STARTCHAR question
ENCODING 63
SWIDTH 560 0
DWIDTH 28 0
BBX 27 38 0 -1
BITMAP
001FC000
00FFF800
03FFFC00
07FFFE00
0FFFFF00
0FFFFF00
1FE07F80
1FC03F80
3F801F80
3F801F80
3F001F80
00003F80
00003F80
0000FF00
0001FF00
0007FE00
000FFC00
001FF800
003FF000
003FE000
007F8000
007F0000
007E0000
007E0000
00FE0000
00FC0000
00FC0000
00000000
00000000
00000000
00F00000
01F80000
03FC0000
03FC0000
03FC0000
03FC0000
01F80000
00F00000
ENDCHAR

STARTCHAR at
ENCODING 64
SWIDTH 740 0
DWIDTH 37 0
BBX 40 39 -1 -1
BITMAP
00007F0000
0007FFF000
001FFFFC00
007FFFFF00
00FE003F80
01F8000FC0
03E00003E0
07C00001F0
0F800000F0
0F00380078
1E01FF3E78
1E07FFBE3C
3C0FFFFE3C
3C1FFFFC3C
381FFFFC1C
383FC3FC1C
783F81FC1C
783F00FC1C
787E00FC1C
787E00F81C
787E00F83C
787E00F838
387F01F838
387F03F870
3C3F87F0F0
3C3FFFF0E0
1E1FFFFBC0
1E1FFFFF80
1F0FFDFE00
0F03F1F800
0780000000
07C00003E0
03F00007C0
01FC001F80
00FF007F00
003FFFFE00
001FFFFC00
0003FFF000
00007F0000
ENDCHAR

STARTCHAR A
ENCODING 65
SWIDTH 740 0
DWIDTH 37 0
BBX 37 36 -2 0
BITMAP
000007E000
00000FE000
00000FE000
00001FE000
00003FF000
00003FF000
00007FF000
00007FF000
0000FFF800
0000FFF800
0001FDF800
0001FDF800
0003F9FC00
0003F9FC00
0007F0FC00
000FF0FC00
000FE0FE00
001FC0FE00
001FC07E00
003F807E00
003F807F00
007F007F00
007FFFFF00
00FFFFFF00
00FFFFFF80
01FFFFFF80
01FFFFFF80
03FFFFFF80
07F8001FC0
07F0001FC0
0FF0000FC0
0FE0000FC0
1FE0000FE0
1FC0000FE0
3F800007E0
3F800007E0
ENDCHAR

STARTCHAR B
ENCODING 66
SWIDTH 580 0
DWIDTH 29 0
BBX 27 36 0 0
BITMAP
03FFC000
03FFF000
03FFFC00
03FFFE00
07FFFE00
07FFFF00
07F0FF00
07F03F80
07F03F80
07E03F80
07E03F80
07E03F80
0FE07F00
0FE0FF00
0FFFFE00
0FFFFC00
0FFFF800
0FFFFC00
0FFFFE00
0FFFFF00
1FC1FF00
1FC07F80
1FC03F80
1FC01FC0
1FC01FC0
1FC01FC0
1FC01FC0
3FC01FC0
3F803FC0
3F80FF80
3FFFFF80
3FFFFF00
3FFFFF00
3FFFFE00
3FFFF800
7FFFE000
ENDCHAR

STARTCHAR C
ENCODING 67
SWIDTH 780 0
DWIDTH 39 0
BBX 38 38 1 -1
BITMAP
00007FE000
0003FFFC00
000FFFFF00
003FFFFFC0
007FFFFFE0
00FFFFFFF0
01FFE03FE0
03FF000FC0
07FC000380
0FF8000100
0FF0000000
1FE0000000
1FC0000000
3FC0000000
3F80000000
3F80000000
3F80000000
7F00000000
7F00000000
7F00000000
7F00000000
7F00000000
7F00000000
7F00000000
3F80000000
3F80000000
3FC0000000
3FE0000000
1FE0000000
1FF8000E00
0FFC003E00
07FF81FF00
03FFFFFF80
01FFFFFFC0
00FFFFFF80
007FFFFE00
001FFFF800
0003FF8000
ENDCHAR

STARTCHAR D
ENCODING 68
SWIDTH 700 0
DWIDTH 35 0
BBX 34 36 0 0
BITMAP
03FFF80000
03FFFF0000
03FFFFC000
03FFFFE000
03FFFFF000
03FFFFF800
03F03FFC00
07F007FC00
07F003FE00
07F001FE00
07F000FF00
07F0007F00
07F0007F00
07E0003F80
07E0003F80
0FE0003F80
0FE0003F80
0FE0003F80
0FE0003F80
0FE0003F80
0FC0003F80
0FC0003F80
1FC0007F00
1FC0007F00
1FC000FF00
1FC000FE00
1FC001FE00
1FC003FC00
1F800FFC00
1F807FF800
3FFFFFF000
3FFFFFE000
3FFFFFC000
3FFFFF8000
3FFFFE0000
3FFFF00000
ENDCHAR

STARTCHAR E
ENCODING 69
SWIDTH 520 0
DWIDTH 26 0
BBX 27 36 0 0
BITMAP
03FFFF80
03FFFF80
03FFFF80
03FFFF80
07FFFF80
07FFFF80
07F00000
07F00000
07F00000
07E00000
07E00000
0FE00000
0FE00000
0FE00000
0FFFFF00
0FFFFE00
0FFFFE00
0FFFFE00
0FFFFE00
1FFFFE00
1FC00000
1FC00000
1FC00000
1FC00000
1FC00000
1F800000
1F800000
3F800000
3F800000
3F800000
3FFFFC00
3FFFF800
3FFFF800
3FFFF800
3FFFF800
7FFFF800
ENDCHAR

STARTCHAR F
ENCODING 70
SWIDTH 480 0
DWIDTH 24 0
BBX 25 36 0 0
BITMAP
03FFFF00
03FFFE00
03FFFE00
03FFFE00
07FFFE00
07FFFE00
07F00000
07F00000
07F00000
07F00000
07E00000
07E00000
0FE00000
0FE00000
0FFFFC00
0FFFFC00
0FFFFC00
0FFFF800
0FFFF800
1FFFF800
1FC00000
1FC00000
1FC00000
1FC00000
1FC00000
1F800000
1F800000
3F800000
3F800000
3F800000
3F800000
3F800000
3F800000
3F000000
3F000000
7F000000
ENDCHAR

STARTCHAR G
ENCODING 71
SWIDTH 840 0
DWIDTH 42 0
BBX 39 38 1 -1
BITMAP
0000FFC000
0007FFF800
001FFFFE00
003FFFFF80
007FFFFFC0
00FFFFFFE0
01FFE0FFF0
03FF001FF8
07FC000FF0
0FF80003C0
0FF0000380
1FE0000000
1FC0000000
3FC0000000
3F80000000
3F80000000
3F00000000
7F00000000
7F00000000
7F000FFFFC
7F001FFFFC
7F001FFFFC
7F001FFFF8
7F001FFFF8
3F801FFFF8
3F800003F8
3FC00007F0
3FC00007F0
1FE0000FE0
1FF0003FE0
0FFC007FC0
07FF03FFC0
07FFFFFF80
03FFFFFF00
00FFFFFC00
007FFFF800
001FFFE000
0003FF0000
ENDCHAR

STARTCHAR H
ENCODING 72
SWIDTH 680 0
DWIDTH 34 0
BBX 34 36 0 0
BITMAP
03F8003F00
03F8007F00
03F8007F00
03F8007F00
03F8007F00
03F8007F00
03F0007E00
03F0007E00
07F000FE00
07F000FE00
07F000FE00
07F000FE00
07F000FE00
07F000FE00
07FFFFFC00
0FFFFFFC00
0FFFFFFC00
0FFFFFFC00
0FFFFFFC00
0FFFFFFC00
0FE001FC00
0FC001F800
1FC001F800
1FC003F800
1FC003F800
1FC003F800
1FC003F800
1FC003F800
1F8003F000
1F8003F000
3F8003F000
3F8007F000
3F8007F000
3F8007F000
3F8007F000
3F0007F000
ENDCHAR

STARTCHAR I
ENCODING 73
SWIDTH 280 0
DWIDTH 14 0
BBX 14 36 0 0
BITMAP
03F8
03F8
03F8
03F0
03F0
03F0
07F0
07F0
07F0
07F0
07E0
07E0
07E0
0FE0
0FE0
0FE0
0FE0
0FC0
0FC0
0FC0
0FC0
1FC0
1FC0
1FC0
1F80
1F80
1F80
1F80
3F80
3F80
3F80
3F80
3F00
3F00
3F00
7F00
ENDCHAR

STARTCHAR J
ENCODING 74
SWIDTH 480 0
DWIDTH 24 0
BBX 27 37 -3 -1
BITMAP
00001F80
00001F80
00003F80
00003F80
00003F80
00003F80
00003F80
00003F00
00003F00
00007F00
00007F00
00007F00
00007F00
00007F00
00007F00
00007E00
00007E00
0000FE00
0000FE00
0000FE00
0000FE00
0000FE00
0000FC00
0000FC00
0001FC00
0001FC00
0001FC00
0301FC00
0F81FC00
1FC1F800
3FE3F800
1FFFF800
0FFFF800
07FFF000
03FFE000
01FFC000
007F0000
ENDCHAR

STARTCHAR K
ENCODING 75
SWIDTH 620 0
DWIDTH 31 0
BBX 33 36 0 0
BITMAP
01F801FE00
03F803FC00
03F807F800
03F80FF000
03F81FE000
03F83FC000
03F07F8000
03F0FF0000
03F1FF0000
07F3FE0000
07F7FC0000
07FFF80000
07FFF00000
07FFE00000
07FFC00000
07FF800000
0FFF000000
0FFF800000
0FFF800000
0FFFC00000
0FFFE00000
0FCFE00000
0FCFF00000
0FC7F00000
1FC3F80000
1FC3FC0000
1FC1FC0000
1FC1FE0000
1FC0FF0000
1F807F0000
1F807F8000
3F803FC000
3F801FC000
3F801FE000
3F800FE000
3F8007F000
ENDCHAR

STARTCHAR L
ENCODING 76
SWIDTH 440 0
DWIDTH 22 0
BBX 22 36 0 0
BITMAP
01F800
03F800
03F800
03F800
03F800
03F800
03F800
03F000
03F000
07F000
07F000
07F000
07F000
07F000
07E000
07E000
0FE000
0FE000
0FE000
0FE000
0FE000
0FC000
0FC000
1FC000
1FC000
1FC000
1FC000
1FC000
1FC000
1F8000
1FFFF0
3FFFF0
3FFFF0
3FFFF0
3FFFF0
3FFFF0
ENDCHAR

STARTCHAR M
ENCODING 77
SWIDTH 900 0
DWIDTH 45 0
BBX 43 36 -1 0
BITMAP
003F00001F80
003F80003F80
003F80003F80
007F80007F80
007F80007F80
007FC000FF80
007FC000FF80
00FFC001FF80
00FFC001FF80
00FFE003FF80
00FFE003FF80
01FFE007FF80
01FFE007FF80
01FFF00FFF80
01FBF00FDF80
03FBF01FDF80
03F3F01F9F80
03F3F83F9F80
03F3F83F9F80
07F1F87F1F80
07E1F87F1F80
07E1FCFE1F80
07E1FCFE1F80
0FE0FDFC1F80
0FC0FDFC1F80
0FC0FFF81F80
0FC0FFF81F80
1FC07FF01F80
1F807FF01F80
1F807FE01F80
1F807FE01F80
3F803FC01F80
3F003FC01F80
3F003F801F80
7F003F801F80
7F001F001F80
ENDCHAR

STARTCHAR N
ENCODING 78
SWIDTH 740 0
DWIDTH 37 0
BBX 37 36 0 0
BITMAP
03F80007E0
03F80007E0
03FC000FE0
03FC000FE0
03FE000FE0
03FE000FE0
03FF000FC0
03FF000FC0
07FF800FC0
07FF801FC0
07FFC01FC0
07EFE01FC0
07EFE01FC0
07E7F01FC0
07E7F01F80
07E3F81F80
0FE3F81F80
0FE1FC3F80
0FE1FC3F80
0FC0FE3F80
0FC0FE3F80
0FC07F3F00
0FC03F3F00
1FC03FBF00
1FC01FFF00
1FC01FFF00
1F800FFF00
1F800FFF00
1F8007FE00
1F8007FE00
1F8003FE00
3F8003FE00
3F8001FE00
3F8001FE00
3F0000FE00
3F0000FE00
ENDCHAR

STARTCHAR O
ENCODING 79
SWIDTH 840 0
DWIDTH 42 0
BBX 40 38 1 -1
BITMAP
00007FE000
0003FFFC00
000FFFFE00
003FFFFF80
007FFFFFC0
00FFFFFFE0
01FFE07FF0
03FF001FF0
07FC0007F8
07F80003F8
0FF00003FC
1FE00001FC
1FC00001FC
1FC00000FE
3F800000FE
3F800000FE
3F800000FE
3F000000FE
7F000000FE
7F000000FE
7F000000FE
7F000000FC
7F000001FC
7F000001FC
7F000003FC
3F800003F8
3F800007F8
3FC0000FF0
3FC0001FF0
1FF0003FE0
1FF800FFC0
0FFF07FF80
07FFFFFF00
03FFFFFE00
01FFFFFC00
00FFFFF000
003FFFC000
0007FE0000
ENDCHAR

STARTCHAR P
ENCODING 80
SWIDTH 560 0
DWIDTH 28 0
BBX 28 36 0 0
BITMAP
03FFF000
03FFFC00
03FFFF00
03FFFF80
03FFFF80
03FFFFC0
03F07FC0
07F01FE0
07F00FE0
07F00FE0
07F00FE0
07F00FE0
07F00FE0
07E03FC0
07E1FFC0
0FFFFF80
0FFFFF80
0FFFFF00
0FFFFE00
0FFFF800
0FFFC000
0FC00000
1FC00000
1FC00000
1FC00000
1FC00000
1FC00000
1FC00000
1F800000
1F800000
3F800000
3F800000
3F800000
3F800000
3F800000
3F000000
ENDCHAR

STARTCHAR Q
ENCODING 81
SWIDTH 840 0
DWIDTH 42 0
BBX 41 39 1 -2
BITMAP
00007FE00000
0003FFFC0000
000FFFFE0000
003FFFFF8000
007FFFFFC000
00FFFFFFE000
01FFE07FF000
03FF001FF000
07FC0007F800
07F80003F800
0FF00003FC00
1FE00001FC00
1FC00001FC00
1FC00000FE00
3F800000FE00
3F800000FE00
3F800000FE00
3F000000FE00
7F000000FE00
7F000000FE00
7F000000FE00
7F000000FC00
7F000001FC00
7F000001FC00
7F003FE3FC00
3F801FF3F800
3F800FFFF800
3FC007FFF000
3FC003FFF000
1FF001FFE000
1FF800FFC000
0FFF07FF8000
07FFFFFFC000
03FFFFFFE000
01FFFFFFF000
00FFFFFFF800
003FFFC7F800
0007FE03FC00
00000001FE00
ENDCHAR

STARTCHAR R
ENCODING 82
SWIDTH 580 0
DWIDTH 29 0
BBX 28 36 0 0
BITMAP
03FFF000
03FFFC00
03FFFF00
03FFFF80
03FFFFC0
03FFFFC0
03F03FC0
07F01FE0
07F00FE0
07F00FE0
07F00FE0
07F00FE0
07E01FC0
07E07FC0
07FFFFC0
0FFFFF80
0FFFFF00
0FFFFE00
0FFFF800
0FFFC000
0FDFC000
0FCFE000
1FCFE000
1FC7F000
1FC7F000
1FC3F800
1FC3F800
1F81FC00
1F81FC00
1F80FE00
3F80FE00
3F807F00
3F807F00
3F803F80
3F803F80
3F001FC0
ENDCHAR

STARTCHAR S
ENCODING 83
SWIDTH 520 0
DWIDTH 26 0
BBX 28 38 -1 -1
BITMAP
000FF000
003FFC00
007FFE00
00FFFF00
01FFFF80
01FFFFC0
01FC7FC0
03F81F00
03F80E00
03F80400
03F80000
03FC0000
01FE0000
01FE0000
00FF0000
00FF8000
007FC000
003FE000
001FF000
000FF800
0007F800
0007FC00
0003FE00
0001FE00
0000FE00
00007F00
00007F00
02007F00
0F007F00
1F007F00
3FC0FF00
7FE1FE00
3FFFFE00
1FFFFC00
0FFFFC00
07FFF800
01FFE000
007F8000
ENDCHAR

STARTCHAR T
ENCODING 84
SWIDTH 420 0
DWIDTH 21 0
BBX 25 36 0 0
BITMAP
3FFFFF00
3FFFFF00
3FFFFF00
3FFFFE00
7FFFFE00
7FFFFE00
007E0000
007E0000
00FE0000
00FE0000
00FE0000
00FE0000
00FE0000
00FE0000
00FC0000
00FC0000
01FC0000
01FC0000
01FC0000
01FC0000
01FC0000
01F80000
01F80000
01F80000
03F80000
03F80000
03F80000
03F80000
03F80000
03F00000
03F00000
03F00000
07F00000
07F00000
07F00000
07F00000
ENDCHAR

STARTCHAR U
ENCODING 85
SWIDTH 640 0
DWIDTH 32 0
BBX 30 37 2 -1
BITMAP
0FE003F8
0FE003F8
0FE003F8
0FE003F0
0FE007F0
0FC007F0
0FC007F0
1FC007F0
1FC007F0
1FC007F0
1FC007E0
1FC007E0
1FC00FE0
1F800FE0
1F800FE0
3F800FE0
3F800FE0
3F800FE0
3F800FC0
3F801FC0
3F001FC0
3F001FC0
7F001FC0
7F001FC0
7F001FC0
7F001F80
7F003F80
7F003F80
7F003F80
3F807F00
3FE1FF00
3FFFFE00
1FFFFE00
0FFFFC00
07FFF800
03FFE000
00FF8000
ENDCHAR

STARTCHAR V
ENCODING 86
SWIDTH 700 0
DWIDTH 35 0
BBX 37 36 1 0
BITMAP
3F00000FE0
3F80000FE0
3F80001FC0
3F80001FC0
1F80003F80
1FC0003F80
1FC0007F00
1FC000FF00
0FC000FE00
0FE001FE00
0FE001FC00
0FE003FC00
07E003F800
07F007F800
07F007F000
07F00FE000
03F00FE000
03F81FC000
03F81FC000
03F83F8000
01F83F8000
01F87F0000
01FCFF0000
01FCFE0000
00FDFE0000
00FDFC0000
00FFFC0000
00FFF80000
007FF80000
007FF00000
007FE00000
007FE00000
003FC00000
003FC00000
003F800000
003F800000
ENDCHAR

STARTCHAR W
ENCODING 87
SWIDTH 900 0
DWIDTH 45 0
BBX 46 36 2 0
BITMAP
7E000FC003F0
7F000FC007F0
7F001FC007E0
3F001FC007E0
3F003FC00FE0
3F003FE00FC0
3F007FE00FC0
3F007FE01FC0
3F00FFE01F80
3F00FFE03F80
3F00FFF03F80
3F01FFF03F00
3F01FBF07F00
3F83FBF07F00
3F83F3F07E00
1F87F3F0FE00
1F87F3F8FC00
1F8FE1F8FC00
1F8FE1F9FC00
1F9FC1F9F800
1F9FC1F9F800
1FBF81FFF800
1FBF80FFF000
1FFF00FFF000
1FFF00FFF000
1FFE00FFE000
0FFE00FFE000
0FFC00FFE000
0FFC007FC000
0FF8007FC000
0FF8007FC000
0FF0007F8000
0FF0007F8000
0FF0003F0000
0FE0003F0000
0FE0003F0000
ENDCHAR

STARTCHAR X
ENCODING 88
SWIDTH 680 0
DWIDTH 34 0
BBX 36 36 -1 0
BITMAP
01FC001FC0
00FE003FC0
00FE007F80
007F007F00
007F00FF00
003F81FE00
003F83FC00
001FC3F800
001FC7F800
001FCFF000
000FEFE000
000FFFE000
0007FFC000
0007FF8000
0003FF0000
0003FF0000
0001FE0000
0001FC0000
0003FC0000
0007FE0000
0007FE0000
000FFF0000
001FFF0000
003FFF8000
003FBF8000
007F9FC000
00FF1FC000
00FE0FE000
01FE0FE000
03FC0FE000
07F807F000
07F007F000
0FF003F800
1FE003F800
3FC001FC00
3FC001FC00
ENDCHAR

STARTCHAR Y
ENCODING 89
SWIDTH 620 0
DWIDTH 31 0
BBX 33 36 0 0
BITMAP
3F8000FF00
3F8001FE00
1F8001FC00
1FC003F800
1FC007F800
0FE00FF000
0FE00FE000
07E01FE000
07F03FC000
07F03F8000
03F87F8000
03F8FF0000
03F9FE0000
01FDFC0000
01FFFC0000
00FFF80000
00FFF00000
00FFF00000
007FE00000
007FC00000
003F800000
003F800000
003F800000
003F000000
003F000000
007F000000
007F000000
007F000000
007F000000
007F000000
007E000000
007E000000
00FE000000
00FE000000
00FE000000
00FE000000
ENDCHAR

STARTCHAR Z
ENCODING 90
SWIDTH 500 0
DWIDTH 25 0
BBX 27 36 -1 0
BITMAP
07FFFF80
07FFFF80
07FFFF80
07FFFF00
07FFFF00
07FFFE00
0000FE00
0001FC00
0001FC00
0003F800
0003F800
0007F000
0007F000
000FE000
000FE000
001FC000
001FC000
003F8000
003F8000
007F0000
007F0000
007E0000
00FE0000
00FE0000
01FC0000
01FC0000
03F80000
03F80000
07F00000
07F00000
0FFFFE00
0FFFFE00
1FFFFC00
1FFFFC00
3FFFFC00
3FFFFC00
ENDCHAR

STARTCHAR bracketleft
ENCODING 91
SWIDTH 320 0
DWIDTH 16 0
BBX 20 47 0 -10
BITMAP
00FFC0
00FFC0
01FFC0
01FFC0
01FFC0
01FFC0
01FC00
01F800
01F800
03F800
03F800
03F800
03F800
03F800
03F000
03F000
07F000
07F000
07F000
07F000
07F000
07F000
07E000
0FE000
0FE000
0FE000
0FE000
0FE000
0FE000
0FC000
0FC000
1FC000
1FC000
1FC000
1FC000
1FC000
1F8000
1F8000
3F8000
3F8000
3F8000
3FF800
3FF800
3FF000
3FF000
7FF000
7FF000
ENDCHAR

STARTCHAR backslash
ENCODING 92
SWIDTH 640 0
DWIDTH 32 0
BBX 24 43 4 -6
BITMAP
3C0000
3E0000
1E0000
1F0000
1F0000
0F0000
0F8000
0F8000
078000
07C000
03C000
03E000
03E000
01E000
01F000
01F000
00F000
00F800
007800
007C00
007C00
003C00
003E00
003E00
001E00
001F00
000F00
000F80
000F80
000780
0007C0
0007C0
0003C0
0003E0
0001E0
0001F0
0001F0
0000F0
0000F8
0000F8
000078
00007C
00003C
ENDCHAR

STARTCHAR bracketright
ENCODING 93
SWIDTH 320 0
DWIDTH 16 0
BBX 21 47 -5 -10
BITMAP
00FFE0
00FFE0
00FFE0
00FFE0
00FFE0
00FFC0
001FC0
001FC0
001FC0
001FC0
001FC0
001FC0
001F80
001F80
003F80
003F80
003F80
003F80
003F80
003F00
003F00
007F00
007F00
007F00
007F00
007F00
007E00
007E00
00FE00
00FE00
00FE00
00FE00
00FE00
00FE00
00FC00
00FC00
01FC00
01FC00
01FC00
01FC00
01FC00
1FF800
1FF800
3FF800
3FF800
3FF800
3FF800
ENDCHAR

STARTCHAR asciicircum
ENCODING 94
SWIDTH 600 0
DWIDTH 30 0
BBX 28 27 1 9
BITMAP
001F8000
001F8000
003FC000
003FC000
003FC000
007FE000
007FE000
007FF000
00FFF000
00FFF000
01F9F800
01F9F800
01F9F800
03F0FC00
03F0FC00
03F0FC00
07E07E00
07E07E00
07E07E00
0FC03F00
0FC03F00
0FC03F00
1F801F80
1F801F80
1F000F80
3F000FC0
3F000FC0
ENDCHAR

STARTCHAR underscore
ENCODING 95
SWIDTH 500 0
DWIDTH 25 0
BBX 29 3 -2 -6
BITMAP
3FFFFFE0
3FFFFFE0
3FFFFFE0
ENDCHAR

STARTCHAR quoteleft
ENCODING 96
SWIDTH 280 0
DWIDTH 14 0
BBX 10 14 4 23
BITMAP
0200
0300
0700
0F00
0E00
1E00
1C00
1F00
3F00
3F00
3F00
3F00
3F00
7F00
ENDCHAR

STARTCHAR a
ENCODING 97
SWIDTH 660 0
DWIDTH 33 0
BBX 32 29 0 -1
BITMAP
000FE000
003FF8FE
00FFFCFE
01FFFEFE
03FFFFFE
07FFFFFC
07FC1FFC
0FF007FC
1FE003FC
1FC003FC
1FC001FC
3F8001FC
3F8001F8
3F8001F8
3F0001F8
3F0001F8
3F0001F8
3F0003F8
3F8003F8
3F8007F8
1FC007F0
1FE01FF0
1FF03FF0
0FFFFFF0
07FFFFF0
03FFFFF0
01FFF7F0
00FFE7F0
003F0000
ENDCHAR

STARTCHAR b
ENCODING 98
SWIDTH 660 0
DWIDTH 33 0
BBX 32 38 0 -1
BITMAP
03F00000
03F00000
03F00000
07F00000
07F00000
07F00000
07E00000
07E00000
07E00000
07E0FC00
07E3FF00
0FEFFFC0
0FFFFFE0
0FFFFFF0
0FFFFFF0
0FFE0FF8
0FF803F8
0FF003FC
0FE001FC
1FC001FC
1FC000FC
1F8000FC
1F8000FC
1F8000FC
1F8000FC
1F8001FC
3F8001FC
3F8001F8
3FC003F8
3FE007F8
3FE00FF0
3FF83FE0
3FFFFFE0
3FFFFFC0
7F7FFF80
7F3FFE00
7F1FFC00
0007E000
ENDCHAR

STARTCHAR c
ENCODING 99
SWIDTH 640 0
DWIDTH 32 0
BBX 31 29 0 -1
BITMAP
0007FC00
001FFF00
007FFFC0
01FFFFE0
03FFFFF0
07FFFFF8
07FE0FF8
0FF803E0
0FE00180
1FC00000
1FC00000
3F800000
3F800000
3F800000
3F000000
3F000000
3F000000
3F000000
3F800000
3F800000
3FC00300
1FE00F80
1FF83FE0
0FFFFFF0
0FFFFFE0
07FFFFC0
01FFFF00
00FFFC00
001FE000
ENDCHAR

STARTCHAR d
ENCODING 100
SWIDTH 660 0
DWIDTH 33 0
BBX 34 38 0 -1
BITMAP
0000003F00
0000003F00
0000007F00
0000007F00
0000007F00
0000007F00
0000007E00
0000007E00
0000007E00
0007E07E00
003FF8FE00
007FFCFE00
01FFFEFE00
03FFFFFE00
07FFFFFC00
07FC1FFC00
0FF007FC00
1FE003FC00
1FC003FC00
1FC001FC00
3F8001FC00
3F8001FC00
3F8001F800
3F0001F800
3F0001F800
3F0001F800
3F0003F800
3F8003F800
3F8007F800
1FC007F000
1FE01FF000
1FF03FF000
0FFFFFF000
07FFFFF000
03FFFFF000
01FFF7F000
00FFE7F000
003F000000
ENDCHAR

STARTCHAR e
ENCODING 101
SWIDTH 640 0
DWIDTH 32 0
BBX 31 29 0 -1
BITMAP
0007F800
003FFE00
007FFF80
01FFFFC0
03FFFFE0
07FFFFF0
07FC1FF0
0FF007F8
1FE003F8
1FC001F8
1FC001FC
3FFFFFFC
3FFFFFFC
3FFFFFFC
3FFFFFFC
3FFFFFFC
3F000000
3F000000
3F800000
3F800000
3FC00400
1FE00F00
1FF87FC0
0FFFFFE0
0FFFFFC0
07FFFF80
01FFFF00
00FFFC00
001FE000
ENDCHAR

STARTCHAR f
ENCODING 102
SWIDTH 280 0
DWIDTH 14 0
BBX 19 38 -1 0
BITMAP
003E00
007F80
00FFC0
01FF80
01FF80
03FF80
03F880
03F000
03F000
03F000
07F000
3FFF00
3FFF00
3FFF00
3FFE00
3FFE00
3FFE00
0FE000
0FE000
0FE000
0FE000
0FC000
0FC000
0FC000
1FC000
1FC000
1FC000
1FC000
1F8000
1F8000
1F8000
1F8000
3F8000
3F8000
3F8000
3F0000
3F0000
3F0000
ENDCHAR

STARTCHAR g
ENCODING 103
SWIDTH 660 0
DWIDTH 33 0
BBX 32 39 0 -11
BITMAP
0007F000
001FFCFE
007FFEFE
01FFFFFE
03FFFFFC
07FFFFFC
07FC1FFC
0FF007FC
1FE003FC
1FC003FC
1F8001FC
3F8001F8
3F8001F8
3F0001F8
3F0001F8
3F0001F8
3F0001F8
3F8003F8
3F8003F8
3FC007F0
1FE01FF0
1FF07FF0
0FFFFFF0
0FFFFFF0
07FFFFF0
03FFFFF0
01FFE7E0
003F87E0
00000FE0
00000FE0
02001FE0
0F803FC0
3FE0FFC0
7FFFFF80
3FFFFF00
1FFFFE00
0FFFFC00
03FFF000
007FC000
ENDCHAR

STARTCHAR h
ENCODING 104
SWIDTH 600 0
DWIDTH 30 0
BBX 28 37 0 0
BITMAP
03F80000
03F80000
03F80000
03F00000
03F00000
03F00000
03F00000
03F00000
07F00000
07F0FC00
07E3FF00
07EFFF80
07FFFFC0
07FFFFC0
07FFFFE0
0FFE1FE0
0FF80FE0
0FF00FE0
0FE00FE0
0FE00FE0
0FE00FE0
0FC00FC0
0FC00FC0
1FC00FC0
1FC00FC0
1FC01FC0
1F801FC0
1F801FC0
1F801F80
1F801F80
3F801F80
3F801F80
3F801F80
3F003F80
3F003F80
3F003F80
3F003F00
ENDCHAR

STARTCHAR i
ENCODING 105
SWIDTH 240 0
DWIDTH 12 0
BBX 15 38 -1 0
BITMAP
01E0
03F0
07F8
07F8
07F8
07F8
03F0
01E0
0000
0000
0000
07E0
07E0
07E0
07E0
0FE0
0FE0
0FE0
0FC0
0FC0
0FC0
0FC0
1FC0
1FC0
1FC0
1F80
1F80
1F80
1F80
1F80
3F80
3F80
3F80
3F00
3F00
3F00
3F00
7F00
ENDCHAR

STARTCHAR j
ENCODING 106
SWIDTH 260 0
DWIDTH 13 0
BBX 21 49 -6 -11
BITMAP
000780
000FC0
001FE0
001FE0
001FE0
001FE0
000FC0
000780
000000
000000
000000
001F80
001F80
001F80
003F80
003F80
003F80
003F00
003F00
003F00
003F00
003F00
007F00
007F00
007F00
007E00
007E00
007E00
007E00
00FE00
00FE00
00FE00
00FE00
00FC00
00FC00
00FC00
00FC00
01FC00
01FC00
01FC00
01F800
03F800
23F800
3FF800
3FF000
3FF000
3FE000
3FC000
1F0000
ENDCHAR

STARTCHAR k
ENCODING 107
SWIDTH 580 0
DWIDTH 29 0
BBX 31 37 0 0
BITMAP
03F00000
03F00000
03F00000
03F00000
03F00000
07F00000
07F00000
07E00000
07E00000
07E00000
07E00FF8
07E01FF0
0FE03FE0
0FE07F80
0FE1FF00
0FC3FE00
0FC7FC00
0FCFF800
0FDFF000
0FFFE000
1FFFC000
1FFF8000
1FFF0000
1FFF8000
1FBFC000
1F9FE000
1F8FE000
3F8FF000
3F87F800
3F83FC00
3F01FE00
3F01FE00
3F00FF00
3F007F80
3F003FC0
7F001FC0
7F001FE0
ENDCHAR

STARTCHAR l
ENCODING 108
SWIDTH 240 0
DWIDTH 12 0
BBX 14 37 -1 0
BITMAP
03F8
03F8
03F0
03F0
03F0
03F0
07F0
07F0
07F0
07F0
07E0
07E0
07E0
07E0
0FE0
0FE0
0FE0
0FC0
0FC0
0FC0
0FC0
1FC0
1FC0
1FC0
1FC0
1F80
1F80
1F80
1F80
3F80
3F80
3F80
3F00
3F00
3F00
3F00
7F00
ENDCHAR

STARTCHAR m
ENCODING 109
SWIDTH 940 0
DWIDTH 47 0
BBX 45 28 -1 0
BITMAP
0000FC007E00
07F3FF01FF80
07EFFF87FFC0
07FFFFCFFFE0
07FFFFDFFFE0
07FFFFFFFFF0
0FFE1FFF1FF0
0FF80FFC0FF0
0FF00FF807F0
0FF00FF007F0
0FE00FF007F0
0FE00FE007F0
0FC00FE007E0
0FC00FE007E0
1FC00FE007E0
1FC00FC007E0
1FC00FC007E0
1F800FC00FE0
1F800FC00FE0
1F801FC00FE0
1F801FC00FC0
1F801FC00FC0
3F801FC00FC0
3F801F800FC0
3F801F801FC0
3F001F801FC0
3F001F801FC0
3F003F801FC0
ENDCHAR

STARTCHAR n
ENCODING 110
SWIDTH 600 0
DWIDTH 30 0
BBX 28 28 0 0
BITMAP
0000FC00
07F3FF00
07EFFF80
07FFFFC0
07FFFFC0
07FFFFE0
0FFE1FE0
0FF80FE0
0FF00FE0
0FE00FE0
0FE00FE0
0FE00FE0
0FC00FC0
1FC00FC0
1FC00FC0
1FC00FC0
1FC01FC0
1F801FC0
1F801FC0
1F801F80
1F801F80
3F801F80
3F801F80
3F801F80
3F003F80
3F003F80
3F003F80
3F003F00
ENDCHAR

STARTCHAR o
ENCODING 111
SWIDTH 640 0
DWIDTH 32 0
BBX 31 29 0 -1
BITMAP
0007F800
003FFE00
007FFF80
01FFFFC0
03FFFFE0
07FFFFE0
07FC3FF0
0FF00FF0
0FE007F8
1FC003F8
1FC003F8
3F8001F8
3F8001F8
3F0001F8
3F0001F8
3F0001F8
3F0003F8
3F0003F8
3F8003F0
3F8007F0
3FC00FF0
1FE01FE0
1FF07FE0
0FFFFFC0
0FFFFF80
07FFFF00
03FFFC00
00FFF800
003FC000
ENDCHAR

STARTCHAR p
ENCODING 112
SWIDTH 660 0
DWIDTH 33 0
BBX 34 38 -2 -10
BITMAP
00003F0000
03F9FFC000
03FBFFF000
03FFFFF800
03FFFFFC00
03FFFFFC00
03FF83FE00
03FE01FE00
03FC00FF00
07F8007F00
07F0007F00
07F0003F00
07E0003F00
07E0003F00
07E0003F00
07E0003F00
07E0007F00
0FE0007F00
0FE0007E00
0FF000FE00
0FF001FE00
0FF803FC00
0FFE0FFC00
0FFFFFF800
0FFFFFF000
1FDFFFE000
1FCFFFC000
1FC7FF0000
1FC1FC0000
1F80000000
1F80000000
1F80000000
1F80000000
3F80000000
3F80000000
3F80000000
3F00000000
3F00000000
ENDCHAR

STARTCHAR q
ENCODING 113
SWIDTH 660 0
DWIDTH 33 0
BBX 32 38 0 -10
BITMAP
0007E000
003FF8FE
007FFCFE
01FFFEFE
03FFFFFE
07FFFFFC
07FC1FFC
0FF007FC
0FE003FC
1FC003FC
1FC001FC
3F8001FC
3F8001F8
3F8001F8
3F0001F8
3F0001F8
3F0001F8
3F0003F8
3F8003F8
3F8007F8
3FC007F0
1FE01FF0
1FF03FF0
0FFFFFF0
0FFFFFF0
07FFFFF0
03FFF7F0
00FFE7F0
003F07E0
000007E0
000007E0
000007E0
000007E0
00000FE0
00000FE0
00000FE0
00000FC0
00000FC0
ENDCHAR

STARTCHAR r
ENCODING 114
SWIDTH 320 0
DWIDTH 16 0
BBX 20 28 -2 0
BITMAP
0003E0
07E7C0
07EFC0
07FF80
07FF80
07FF80
0FFC00
0FF000
0FF000
0FE000
0FE000
0FE000
0FC000
0FC000
1FC000
1FC000
1FC000
1F8000
1F8000
1F8000
1F8000
3F8000
3F8000
3F8000
3F8000
3F0000
3F0000
3F0000
ENDCHAR

STARTCHAR s
ENCODING 115
SWIDTH 440 0
DWIDTH 22 0
BBX 23 29 -2 -1
BITMAP
003F80
00FFE0
01FFF0
03FFF8
03FFFC
07FFF8
07F1F8
07E070
07F030
07F800
07FC00
03FE00
03FF80
01FFC0
00FFE0
007FF0
001FF0
000FF8
0007F8
0403F8
0E01F8
0F03F8
1FC7F8
3FFFF8
3FFFF0
1FFFF0
0FFFE0
03FF80
00FE00
ENDCHAR

STARTCHAR t
ENCODING 116
SWIDTH 300 0
DWIDTH 15 0
BBX 18 37 -1 0
BITMAP
01FC00
01F800
01F800
01F800
01F800
03F800
03F800
03F800
03F000
03F000
1FFF00
3FFF00
3FFF00
3FFF00
3FFF00
3FFF00
07E000
07E000
07E000
0FE000
0FE000
0FE000
0FE000
0FC000
0FC000
0FC000
0FC000
1FC000
1FC000
1FC000
1FC000
1F8000
1F8000
1F8000
1F8000
3F8000
3F8000
ENDCHAR

STARTCHAR u
ENCODING 117
SWIDTH 600 0
DWIDTH 30 0
BBX 28 28 1 -1
BITMAP
0FC00FE0
0FC00FE0
0FC00FC0
1FC00FC0
1FC00FC0
1FC00FC0
1F801FC0
1F801FC0
1F801FC0
1F801F80
3F801F80
3F801F80
3F801F80
3F801F80
3F003F80
3F003F80
3F003F00
3F003F00
3F007F00
3F807F00
3F80FE00
3FE1FE00
1FFFFE00
1FFFFC00
0FFFF800
07FFF000
03FFE000
007F8000
ENDCHAR

STARTCHAR v
ENCODING 118
SWIDTH 560 0
DWIDTH 28 0
BBX 29 27 0 0
BITMAP
3F000FE0
3F000FE0
3F001FC0
3F803FC0
1F803F80
1F807F00
1FC07F00
1FC0FE00
0FC0FE00
0FC1FC00
0FE3FC00
07E3F800
07E7F000
07F7F000
07FFE000
03FFE000
03FFC000
03FFC000
01FF8000
01FF0000
01FF0000
01FE0000
00FE0000
00FC0000
00FC0000
00780000
00700000
ENDCHAR

STARTCHAR w
ENCODING 119
SWIDTH 800 0
DWIDTH 40 0
BBX 41 27 0 0
BITMAP
7F001C007F00
3F003C00FE00
3F003C00FE00
3F807E01FC00
3F807E01F800
1F80FE03F800
1F80FE03F000
1FC1FF07F000
1FC3FF0FE000
0FC3FF0FE000
0FC7FF1FC000
0FE7FF9FC000
0FEFFFBF8000
07EFDFBF8000
07FFDFFF0000
07FF9FFF0000
07FF8FFE0000
03FF0FFE0000
03FF0FFC0000
03FE0FF80000
03FE07F80000
01FC07F00000
01FC07F00000
01F807E00000
01F003E00000
00F003C00000
00E003C00000
ENDCHAR

STARTCHAR x
ENCODING 120
SWIDTH 560 0
DWIDTH 28 0
BBX 30 27 -2 0
BITMAP
0FE007F0
0FF00FE0
07F01FE0
03F83FC0
03F83F80
01FC7F80
01FEFF00
00FFFE00
007FFC00
007FFC00
003FF800
003FF000
001FE000
001FE000
003FE000
003FF000
007FF800
00FFF800
00FFFC00
01FDFC00
03FCFE00
07F87F00
07F07F00
0FE03F80
1FE03F80
3FC01FC0
3F800FE0
ENDCHAR

STARTCHAR y
ENCODING 121
SWIDTH 580 0
DWIDTH 29 0
BBX 30 37 0 -10
BITMAP
7F0003F0
3F0007F0
3F000FE0
3F800FE0
1F801FC0
1F801FC0
1FC03F80
1FC03F80
0FC07F00
0FE0FE00
0FE0FE00
07E1FC00
07F1FC00
07F3F800
03F3F800
03F7F000
03FFE000
01FFE000
01FFC000
01FFC000
00FF8000
00FF8000
00FF0000
007F0000
00FE0000
01FC0000
01FC0000
03F80000
03F80000
07F00000
07F00000
0FE00000
0FC00000
1FC00000
3F800000
3F800000
7F000000
ENDCHAR

STARTCHAR z
ENCODING 122
SWIDTH 460 0
DWIDTH 23 0
BBX 28 27 -3 0
BITMAP
07FFFFC0
07FFFF80
07FFFF00
07FFFF00
07FFFE00
0FFFFE00
0001FC00
0003F800
0007F800
0007F000
000FE000
001FE000
001FC000
003F8000
007F8000
007F0000
00FE0000
01FE0000
01FC0000
03F80000
03F80000
07FFFF80
0FFFFF80
0FFFFF80
1FFFFF80
3FFFFF00
3FFFFF00
ENDCHAR

STARTCHAR braceleft
ENCODING 123
SWIDTH 340 0
DWIDTH 17 0
BBX 23 47 -2 -11
BITMAP
0000FC
0007FC
000FF8
001FF8
001FF8
003FF8
003F80
007F00
007F00
007E00
007E00
007E00
007E00
007E00
00FE00
00FC00
00FC00
01FC00
01FC00
03F800
1FF000
3FF000
3FC000
3F8000
3FC000
3FE000
3FF000
07F000
07F000
03F000
03F000
03F000
03F000
03F000
07F000
07F000
07F000
07E000
07E000
07E000
07F000
07FF00
07FF00
07FE00
03FE00
01FE00
007E00
ENDCHAR

STARTCHAR bar
ENCODING 124
SWIDTH 600 0
DWIDTH 30 0
BBX 6 47 12 -10
BITMAP
78
78
78
78
78
78
78
78
78
78
78
78
78
78
78
78
78
78
78
78
78
78
78
78
78
78
78
78
78
78
78
78
78
78
78
78
78
78
78
78
78
78
78
78
78
78
78
ENDCHAR

STARTCHAR braceright
ENCODING 125
SWIDTH 340 0
DWIDTH 17 0
BBX 23 47 -6 -11
BITMAP
00FC00
00FF00
00FF80
00FFC0
01FFC0
01FFC0
001FC0
000FC0
000FC0
000FC0
000FC0
001FC0
001FC0
001F80
001F80
001F80
001F80
001F80
001FC0
001FC0
000FF8
000FFC
0007F8
0003F8
0007F8
000FF8
001FF0
003F80
003F00
007F00
007E00
007E00
00FE00
00FE00
00FC00
00FC00
00FC00
00FC00
01FC00
01FC00
03F800
3FF800
3FF800
3FF000
3FE000
7FC000
7E0000
ENDCHAR

STARTCHAR asciitilde
ENCODING 126
SWIDTH 600 0
DWIDTH 30 0
BBX 28 11 1 12
BITMAP
07E00000
3FFC0020
7FFF0060
7FFFC1E0
7FFFFFE0
7FFFFFE0
7FFFFFE0
783FFFE0
600FFFE0
4003FFC0
00007F00
ENDCHAR

STARTCHAR space
ENCODING 160
SWIDTH 280 0
DWIDTH 18 0
BBX 0 0 0 0
BITMAP
ENDCHAR

STARTCHAR Aogonek
ENCODING 161
SWIDTH 740 0
DWIDTH 37 0
BBX 38 46 -2 -10
BITMAP
000007E000
00000FE000
00000FF000
00001FF000
00001FF000
00003FF000
00003FF800
00007FF800
00007FF800
0000FFF800
0000FFFC00
0001FDFC00
0001FDFC00
0003F8FC00
0007F0FE00
0007F0FE00
000FE0FE00
000FE07E00
001FC07F00
001FC07F00
003F807F00
003F803F00
007FFFFF80
007FFFFF80
00FFFFFF80
00FFFFFF80
01FFFFFFC0
03FFFFFFC0
03F8001FC0
07F8000FC0
07F0000FC0
0FE0000FE0
0FE0000FE0
1FC00007E0
1FC00007E0
3F800007F0
00000001E0
0000000380
0000000700
0000000F00
0000001F00
0000001F00
0000001FF0
0000000FF0
0000000FF0
00000003E0
ENDCHAR

STARTCHAR breve
ENCODING 162
SWIDTH 480 0
DWIDTH 24 0
BBX 23 7 3 31
BITMAP
7E01F8
7F03F8
3FFFF0
3FFFE0
1FFFC0
0FFF80
01FC00
ENDCHAR

STARTCHAR Lslash
ENCODING 163
SWIDTH 480 0
DWIDTH 24 0
BBX 24 36 -1 0
BITMAP
007E00
00FE00
00FE00
00FE00
00FE00
00FE00
00FE00
00FC00
00FC00
01FC00
01FC10
01FC70
01FDF0
01FFF0
01FFE0
01FF80
03FE00
07F800
1FF800
3FF800
3FF800
3BF000
63F000
43F000
07F000
07F000
07F000
07F000
07F000
07E000
07FFFC
0FFFFC
0FFFFC
0FFFFC
0FFFFC
0FFFFC
ENDCHAR

STARTCHAR currency
ENCODING 164
SWIDTH 600 0
DWIDTH 30 0
BBX 29 25 1 5
BITMAP
080F8080
1C7FF1C0
3FFFFFE0
3FFFFFE0
1FFFFF80
0FE03F80
0FC01F80
1F800FC0
1F0007C0
1E0003E0
3E0003E0
3E0003E0
3E0003E0
3E0003E0
3E0003E0
1E0003E0
1F0007C0
1F800FC0
0FC01F80
0FE03F80
1FFFFFC0
3FFFFFE0
3EFFFFE0
1C7FF1C0
080F8080
ENDCHAR

STARTCHAR Lcaron
ENCODING 165
SWIDTH 440 0
DWIDTH 22 0
BBX 24 36 0 0
BITMAP
01F8FC
03F8FC
03F8FC
03F8FC
03F8FC
03F8FC
03F9F8
03F038
03F078
07F070
07F0F0
07F1E0
07F0C0
07F000
07E000
07E000
0FE000
0FE000
0FE000
0FE000
0FE000
0FC000
0FC000
1FC000
1FC000
1FC000
1FC000
1FC000
1FC000
1F8000
1FFFF0
3FFFF0
3FFFF0
3FFFF0
3FFFF0
3FFFF0
ENDCHAR

STARTCHAR Sacute
ENCODING 166
SWIDTH 520 0
DWIDTH 26 0
BBX 28 49 -1 -1
BITMAP
00003F80
00007F00
0000FE00
0001FC00
0001F800
0003F000
0007E000
000FC000
000F8000
00000000
00000000
000FF000
003FFC00
007FFE00
00FFFF00
01FFFF80
01FFFFC0
01FC7FC0
03F81F00
03F80E00
03F80400
03F80000
03FC0000
01FE0000
01FE0000
00FF0000
00FF8000
007FC000
003FE000
001FF000
000FF800
0007FC00
0007FC00
0003FE00
0001FE00
0000FE00
00007F00
00007F00
02007F00
0F007F00
1F007F00
3FC0FF00
7FE1FE00
3FFFFE00
1FFFFC00
0FFFFC00
07FFF800
01FFE000
007F8000
ENDCHAR

STARTCHAR section
ENCODING 167
SWIDTH 560 0
DWIDTH 28 0
BBX 27 48 0 -11
BITMAP
0007F000
001FFC00
007FFE00
00FFFF00
00FFFF80
01FFFF80
01FC3FC0
03F81FC0
03F81FC0
03F80000
03FC0000
03FE0000
01FF0000
01FF8000
00FFE000
00FFF000
03FFF800
07FFFC00
0FE7FE00
1F83FF00
1F81FF00
1F007F80
3F003F80
3F001F80
3F801F80
3FC01F80
1FE01F80
1FF03F00
0FFC7F00
07FFFE00
03FFFC00
01FFF000
00FFE000
003FF000
001FF800
000FF800
0007FC00
0003FC00
0001FC00
7F01FC00
7F81FC00
3FC3F800
3FFFF800
3FFFF000
1FFFF000
0FFFE000
07FF8000
00FE0000
ENDCHAR

STARTCHAR dieresis
ENCODING 168
SWIDTH 500 0
DWIDTH 25 0
BBX 21 7 4 31
BITMAP
1E03C0
3F07E0
7F0FE0
7F0FE0
7F0FE0
7E0FC0
3C0780
ENDCHAR

STARTCHAR Scaron
ENCODING 169
SWIDTH 520 0
DWIDTH 26 0
BBX 28 46 -1 -1
BITMAP
01FC1FC0
00FE3F00
007E7E00
007FFC00
003FF800
001FF000
000FC000
00000000
000FF000
003FFC00
007FFE00
00FFFF00
01FFFF80
01FFFFC0
01FC7FC0
03F81F00
03F80E00
03F80400
03F80000
03FC0000
01FE0000
01FE0000
00FF0000
00FF8000
007FC000
003FE000
001FF000
000FF800
0007FC00
0007FC00
0003FE00
0001FE00
0000FE00
00007F00
00007F00
02007F00
0F007F00
1F007F00
3FC0FF00
7FE1FE00
3FFFFE00
1FFFFC00
0FFFFC00
07FFF800
01FFE000
007F8000
ENDCHAR

STARTCHAR Scommaaccent
ENCODING 170
SWIDTH 520 0
DWIDTH 26 0
BBX 28 47 -1 -10
BITMAP
000FF000
003FFC00
007FFE00
00FFFF00
01FFFF80
01FFFFC0
01FC7FC0
03F81F00
03F80E00
03F80400
03F80000
03FC0000
01FE0000
01FE0000
00FF0000
00FF8000
007FC000
003FE000
001FF000
000FF800
0007FC00
0007FC00
0003FE00
0001FE00
0000FE00
00007F00
00007F00
02007F00
0F007F00
1F007F00
3FC0FF00
7FE1FE00
3FFFFE00
1FFFFC00
0FFFFC00
07FFF800
01FFE000
007F8000
00000000
00000000
001E0000
001E0000
001E0000
003E0000
000C0000
000C0000
00180000
ENDCHAR

STARTCHAR Tcaron
ENCODING 171
SWIDTH 420 0
DWIDTH 21 0
BBX 27 45 0 0
BITMAP
07F87F80
03F8FE00
01FDFC00
00FFF800
007FF000
003FE000
001F8000
00000000
00000000
3FFFFF00
3FFFFF00
3FFFFF00
3FFFFE00
7FFFFE00
7FFFFE00
007E0000
007E0000
00FE0000
00FE0000
00FE0000
00FE0000
00FE0000
00FE0000
00FC0000
00FC0000
01FC0000
01FC0000
01FC0000
01FC0000
01FC0000
01F80000
01F80000
01F80000
03F80000
03F80000
03F80000
03F80000
03F80000
03F00000
03F00000
03F00000
07F00000
07F00000
07F00000
07F00000
ENDCHAR

STARTCHAR Zacute
ENCODING 172
SWIDTH 500 0
DWIDTH 25 0
BBX 28 48 -1 0
BITMAP
00003F80
00007F00
0000FE00
0001FC00
0001F800
0003F000
0007E000
000FC000
000F8000
00000000
00000000
00000000
07FFFF80
07FFFF80
07FFFF80
07FFFF00
07FFFF00
07FFFE00
0000FE00
0001FC00
0001FC00
0003F800
0003F800
0007F000
0007F000
000FE000
000FE000
001FC000
001FC000
003F8000
003F8000
007F0000
007F0000
007E0000
00FE0000
00FE0000
01FC0000
01FC0000
03F80000
03F80000
07F00000
07F00000
0FFFFE00
0FFFFE00
1FFFFC00
1FFFFC00
3FFFFC00
3FFFFC00
ENDCHAR

STARTCHAR hyphen
ENCODING 173
SWIDTH 420 0
DWIDTH 21 0
BBX 16 6 2 10
BITMAP
3FFE
3FFE
3FFE
7FFE
7FFC
7FFC
ENDCHAR

STARTCHAR Zcaron
ENCODING 174
SWIDTH 500 0
DWIDTH 25 0
BBX 28 45 -1 0
BITMAP
03FC1FC0
01FC3F80
00FE7E00
007FFC00
003FF800
001FF000
000FC000
00000000
00000000
07FFFF80
07FFFF80
07FFFF80
07FFFF00
07FFFF00
07FFFE00
0000FE00
0001FC00
0001FC00
0003F800
0003F800
0007F000
0007F000
000FE000
000FE000
001FC000
001FC000
003F8000
003F8000
007F0000
007F0000
007E0000
00FE0000
00FE0000
01FC0000
01FC0000
03F80000
03F80000
07F00000
07F00000
0FFFFE00
0FFFFE00
1FFFFC00
1FFFFC00
3FFFFC00
3FFFFC00
ENDCHAR

STARTCHAR Zdotaccent
ENCODING 175
SWIDTH 500 0
DWIDTH 25 0
BBX 27 45 -1 0
BITMAP
0003C000
0007E000
000FE000
000FE000
000FE000
000FC000
00078000
00000000
00000000
07FFFF80
07FFFF80
07FFFF00
07FFFF00
07FFFE00
07FFFE00
0001FC00
0001FC00
0001F800
0003F800
0003F800
0007F000
0007F000
000FE000
000FE000
001FC000
001FC000
003F8000
003F8000
007F0000
007F0000
00FE0000
00FE0000
01FC0000
01FC0000
03F80000
03F80000
07F00000
07F00000
0FE00000
0FFFFE00
0FFFFC00
1FFFFC00
1FFFFC00
3FFFFC00
3FFFFC00
ENDCHAR

STARTCHAR degree
ENCODING 176
SWIDTH 400 0
DWIDTH 20 0
BBX 19 17 2 20
BITMAP
01F000
07FC00
0FFE00
1E0F00
3C0380
380380
7001C0
7001C0
7001C0
7001C0
7001C0
380380
3C0780
1E0F00
0FFE00
07FC00
01F000
ENDCHAR

STARTCHAR aogonek
ENCODING 177
SWIDTH 660 0
DWIDTH 33 0
BBX 33 38 -1 -10
BITMAP
0007F00000
003FFC7E00
00FFFE7E00
01FFFFFE00
03FFFFFE00
07FFFFFE00
07FC1FFE00
0FF007FC00
1FE003FC00
1FC001FC00
1FC001FC00
3F8001FC00
3F8001FC00
3F8000FC00
3F0001FC00
3F0001F800
3F0001F800
3F8001F800
3F8003F800
3F8003F800
1FC007F800
1FE00FF800
1FF83FF800
0FFFFFF000
07FFFFF000
03FFFFF000
01FFF3F000
00FFE7F000
001F01E000
0000038000
0000070000
00000F0000
00001F0000
00001F0000
00001FF000
00001FF000
00000FF000
000003E000
ENDCHAR

STARTCHAR ogonek
ENCODING 178
SWIDTH 340 0
DWIDTH 17 0
BBX 12 10 2 -10
BITMAP
0780
0E00
1C00
3C00
7C00
7C00
7FC0
3FC0
3FC0
0F80
ENDCHAR

STARTCHAR lslash
ENCODING 179
SWIDTH 320 0
DWIDTH 16 0
BBX 20 37 -2 0
BITMAP
007F00
007F00
007E00
007E00
007E00
007E00
00FE00
00FE00
00FE00
00FC00
00FC00
00FC00
00FC40
01FDC0
01FFC0
01FFC0
01FFC0
01FF00
03FC00
0FF800
1FF800
1FF800
3FF800
3BF800
23F000
03F000
03F000
03F000
07F000
07F000
07F000
07F000
07E000
07E000
07E000
07E000
0FE000
ENDCHAR

STARTCHAR acute
ENCODING 180
SWIDTH 420 0
DWIDTH 21 0
BBX 18 10 6 31
BITMAP
007F00
00FE00
01FC00
03F800
03F000
07E000
0FC000
0F8000
1F0000
3E0000
ENDCHAR

STARTCHAR lcaron
ENCODING 181
SWIDTH 289 0
DWIDTH 14 0
BBX 21 37 -1 0
BITMAP
03FBF0
03FBF0
03F3E0
03F3E0
03F3E0
03F3E0
07F0C0
07F1C0
07F380
07E380
07E300
07E000
07E000
0FE000
0FE000
0FE000
0FE000
0FC000
0FC000
0FC000
0FC000
1FC000
1FC000
1FC000
1F8000
1F8000
1F8000
1F8000
3F8000
3F8000
3F8000
3F8000
3F0000
3F0000
3F0000
3F0000
7F0000
ENDCHAR

STARTCHAR sacute
ENCODING 182
SWIDTH 440 0
DWIDTH 22 0
BBX 26 43 -2 -1
BITMAP
0000FF00
0000FE00
0001FC00
0003F800
0007F000
000FE000
000FC000
001F8000
003E0000
007C0000
00000000
00000000
00000000
00000000
003F8000
00FFE000
01FFF000
03FFF800
03FFFC00
07FFF800
07F1F800
07E07000
07F03000
07F80000
07FC0000
03FE0000
03FF8000
01FFC000
00FFE000
007FF000
001FF000
000FF800
0007F800
0403F800
0E01F800
0F03F800
1FC7F800
3FFFF800
3FFFF000
1FFFE000
0FFFE000
03FF8000
00FE0000
ENDCHAR

STARTCHAR caron
ENCODING 183
SWIDTH 540 0
DWIDTH 27 0
BBX 23 7 5 31
BITMAP
7F03F8
3F87F0
1FCFE0
0FDF80
07FF00
03FE00
01FC00
ENDCHAR

STARTCHAR commaaccent
ENCODING 184
SWIDTH 333 0
DWIDTH 17 0
BBX 8 7 4 -10
BITMAP
3E
3E
3C
3C
0C
18
30
ENDCHAR

STARTCHAR scaron
ENCODING 185
SWIDTH 440 0
DWIDTH 22 0
BBX 26 39 -2 -1
BITMAP
07F0FF00
03F9FC00
01FBF800
01FFF000
00FFE000
007FC000
003F0000
00000000
00000000
00000000
003F8000
00FFE000
01FFF000
03FFF800
03FFFC00
07FFF800
07F1F800
07E07000
07F03000
07F80000
07FC0000
03FE0000
03FF8000
01FFC000
00FFE000
007FF000
001FF000
000FF800
0007F800
0403F800
0E01F800
0F03F800
1FC7F800
3FFFF800
3FFFF000
1FFFE000
0FFFE000
03FF8000
00FE0000
ENDCHAR

STARTCHAR scommaaccent
ENCODING 186
SWIDTH 440 0
DWIDTH 22 0
BBX 23 38 -2 -10
BITMAP
003F80
00FFE0
01FFF0
03FFF8
03FFFC
07FFF8
07F1F8
07E070
07F030
07F800
07FC00
03FE00
03FF80
01FFC0
00FFE0
007FF0
001FF0
000FF8
0007F8
0403F8
0E01F8
0F03F8
1FC7F8
3FFFF8
3FFFF0
1FFFE0
0FFFC0
03FF80
00FC00
000000
000000
007800
007800
00F800
00F800
003000
007000
006000
ENDCHAR

STARTCHAR tcaron
ENCODING 187
SWIDTH 318 0
DWIDTH 16 0
BBX 24 37 -1 0
BITMAP
01FC7E
01F87C
01F87C
01F87C
01F81C
03F838
03F838
03F870
03F060
03F000
1FFF00
3FFF00
3FFF00
3FFF00
3FFF00
3FFF00
07E000
07E000
07E000
0FE000
0FE000
0FE000
0FE000
0FC000
0FC000
0FC000
0FC000
1FC000
1FC000
1FC000
1FC000
1F8000
1F8000
1F8000
1F8000
3F8000
3F8000
ENDCHAR

STARTCHAR zacute
ENCODING 188
SWIDTH 460 0
DWIDTH 23 0
BBX 28 41 -3 0
BITMAP
00003F80
00007F00
0000FE00
0001FC00
0001F800
0003F000
0007E000
000FC000
000F8000
00000000
00000000
00000000
00000000
00000000
07FFFFC0
07FFFF80
07FFFF00
07FFFF00
07FFFE00
0FFFFE00
0001FC00
0003F800
0007F800
0007F000
000FE000
001FE000
001FC000
003F8000
007F8000
007F0000
00FE0000
01FE0000
01FC0000
03F80000
03F80000
07FFFF80
0FFFFF80
0FFFFF80
1FFFFF80
3FFFFF00
3FFFFF00
ENDCHAR

STARTCHAR hungarumlaut
ENCODING 189
SWIDTH 700 0
DWIDTH 35 0
BBX 29 10 11 31
BITMAP
00FF1FE0
00FE1FC0
01FC3F80
03F87F00
07F0FE00
07E0FC00
0FC1F800
1F83F000
3F07C000
3E078000
ENDCHAR

STARTCHAR zcaron
ENCODING 190
SWIDTH 460 0
DWIDTH 23 0
BBX 28 38 -3 0
BITMAP
01FC3FC0
00FE7F00
007EFE00
007FFC00
003FF800
001FF000
000FC000
00000000
00000000
00000000
00000000
07FFFFC0
07FFFF80
07FFFF00
07FFFF00
07FFFE00
0FFFFE00
0001FC00
0003F800
0007F800
0007F000
000FE000
001FE000
001FC000
003F8000
007F8000
007F0000
00FE0000
01FE0000
01FC0000
03F80000
03F80000
07FFFF80
0FFFFF80
0FFFFF80
1FFFFF80
3FFFFF00
3FFFFF00
ENDCHAR

STARTCHAR zdotaccent
ENCODING 191
SWIDTH 460 0
DWIDTH 23 0
BBX 27 38 -3 0
BITMAP
0003C000
0007E000
000FE000
000FE000
000FE000
000FC000
00078000
00000000
00000000
00000000
00000000
07FFFFC0
07FFFF80
07FFFF00
0FFFFF00
0FFFFE00
0FFFFC00
0003FC00
0003F800
0007F000
000FF000
000FE000
001FC000
003FC000
003F8000
007F0000
007F0000
00FE0000
01FC0000
01FC0000
03F80000
07F80000
07FFFF80
0FFFFF80
1FFFFF00
1FFFFF00
3FFFFF00
7FFFFF00
ENDCHAR

STARTCHAR Racute
ENCODING 192
SWIDTH 580 0
DWIDTH 29 0
BBX 28 48 0 0
BITMAP
00003FC0
00003F80
00007F00
0000FE00
0001FC00
0001F800
0003F000
0007C000
000F8000
00000000
00000000
00000000
03FFE000
03FFFC00
03FFFF00
03FFFF80
03FFFF80
03FFFFC0
03F07FC0
07F01FE0
07F00FE0
07F00FE0
07F00FE0
07F00FE0
07E01FC0
07E07FC0
07FFFFC0
0FFFFF80
0FFFFF00
0FFFFE00
0FFFF800
0FFFC000
0FDFC000
0FCFE000
1FCFE000
1FC7F000
1FC7F000
1FC3F800
1FC3F800
1F81FC00
1F81FC00
1F80FE00
3F80FE00
3F807F00
3F807F00
3F803F80
3F803F80
3F001FC0
ENDCHAR

STARTCHAR Aacute
ENCODING 193
SWIDTH 740 0
DWIDTH 37 0
BBX 37 48 -2 0
BITMAP
0000003F80
0000007F00
000000FE00
000001FC00
000001F800
000003F000
000007E000
00000FC000
00000F8000
0000000000
0000000000
0000000000
000007E000
00000FE000
00000FE000
00001FE000
00003FF000
00003FF000
00007FF000
00007FF000
0000FFF800
0000FFF800
0001FDF800
0001FDF800
0003F9FC00
0003F9FC00
0007F0FC00
000FF0FC00
000FE0FE00
001FC0FE00
001FC07E00
003F807E00
003F807F00
007F007F00
007FFFFF00
00FFFFFF00
00FFFFFF80
01FFFFFF80
01FFFFFF80
03FFFFFF80
07F8001FC0
07F0001FC0
0FF0000FC0
0FE0000FC0
1FE0000FE0
1FC0000FE0
3F800007E0
3F800007E0
ENDCHAR

STARTCHAR Acircumflex
ENCODING 194
SWIDTH 740 0
DWIDTH 37 0
BBX 37 45 -2 0
BITMAP
000003F000
000007F000
00000FF800
00003FFC00
00007F7E00
0000FE7F00
0001FC3F80
0000000000
0000000000
000007E000
00000FE000
00000FE000
00001FE000
00003FF000
00003FF000
00007FF000
00007FF000
0000FFF800
0000FFF800
0001FDF800
0001FDF800
0003F9FC00
0003F9FC00
0007F0FC00
000FF0FC00
000FE0FE00
001FC0FE00
001FC07E00
003F807E00
003F807F00
007F007F00
007FFFFF00
00FFFFFF00
00FFFFFF80
01FFFFFF80
01FFFFFF80
03FFFFFF80
07F8001FC0
07F0001FC0
0FF0000FC0
0FE0000FC0
1FE0000FE0
1FC0000FE0
3F800007E0
3F800007E0
ENDCHAR

STARTCHAR Abreve
ENCODING 195
SWIDTH 740 0
DWIDTH 37 0
BBX 37 46 -2 0
BITMAP
0003F00FC0
0003F81F80
0003FFFF80
0001FFFF00
0000FFFE00
00007FFC00
00001FE000
0000000000
0000000000
0000000000
000007E000
00000FE000
00001FE000
00001FE000
00003FF000
00003FF000
00007FF000
00007FF000
0000FFF800
0000FFF800
0001FDF800
0001FDF800
0003F9FC00
0003F9FC00
0007F0FC00
000FF0FC00
000FE0FE00
001FC0FE00
001FC07E00
003F807E00
003F807F00
007F007F00
007FFFFF00
00FFFFFF00
00FFFFFF80
01FFFFFF80
01FFFFFF80
03FFFFFF80
07F8001FC0
07F0001FC0
0FF0000FC0
0FE0000FC0
1FE0000FE0
1FC0000FE0
3F800007E0
3F800007E0
ENDCHAR

STARTCHAR Adieresis
ENCODING 196
SWIDTH 740 0
DWIDTH 37 0
BBX 38 45 -2 0
BITMAP
0000780F00
0000FC1F80
0001FC3F80
0001FC3F80
0001FC3F80
0001F83F00
0000F01E00
0000000000
0000000000
000007E000
00000FE000
00000FF000
00001FF000
00001FF000
00003FF000
00003FF800
00007FF800
00007FF800
0000FFF800
0000FFFC00
0001FDFC00
0001FCFC00
0003F8FC00
0007F0FE00
0007F0FE00
000FE07E00
000FE07E00
001FC07F00
001FC07F00
003F803F00
003F803F00
007FFFFF80
007FFFFF80
00FFFFFF80
01FFFFFF80
01FFFFFFC0
03FFFFFFC0
03F8000FC0
07F8000FC0
07F0000FE0
0FE0000FE0
0FE00007E0
1FC00007E0
1FC00007F0
3F800007F0
ENDCHAR

STARTCHAR Lacute
ENCODING 197
SWIDTH 440 0
DWIDTH 22 0
BBX 25 48 0 0
BITMAP
0001FE00
0003FC00
0003F800
0007F000
000FE000
001F8000
001F0000
003E0000
007C0000
00000000
00000000
00000000
01F80000
03F80000
03F80000
03F80000
03F80000
03F80000
03F80000
03F00000
03F00000
07F00000
07F00000
07F00000
07F00000
07F00000
07E00000
07E00000
0FE00000
0FE00000
0FE00000
0FE00000
0FE00000
0FC00000
0FC00000
1FC00000
1FC00000
1FC00000
1FC00000
1FC00000
1FC00000
1F800000
1FFFF000
3FFFF000
3FFFF000
3FFFF000
3FFFF000
3FFFF000
ENDCHAR

STARTCHAR Cacute
ENCODING 198
SWIDTH 780 0
DWIDTH 39 0
BBX 38 49 1 -1
BITMAP
000001FC00
000003F800
000007F000
00000FE000
00000FC000
00001F8000
00003F0000
00007E0000
00007C0000
0000000000
0000000000
00007FE000
0003FFFC00
000FFFFF00
003FFFFFC0
007FFFFFE0
00FFFFFFF0
01FFE03FE0
03FF000FC0
07FE000380
0FF8000100
0FF0000000
1FE0000000
1FC0000000
3FC0000000
3F80000000
3F80000000
3F80000000
7F00000000
7F00000000
7F00000000
7F00000000
7F00000000
7F00000000
7F00000000
3F80000000
3F80000000
3FC0000000
3FC0000000
1FE0000000
1FF8000E00
0FFC003E00
07FF81FF00
03FFFFFF80
01FFFFFFC0
00FFFFFF80
007FFFFE00
001FFFF800
0003FF8000
ENDCHAR

STARTCHAR Ccedilla
ENCODING 199
SWIDTH 780 0
DWIDTH 39 0
BBX 38 47 1 -10
BITMAP
00007FE000
0003FFFC00
000FFFFF00
003FFFFFC0
007FFFFFE0
00FFFFFFF0
01FFE07FE0
03FF000FC0
07FC000780
0FF8000100
0FF0000000
1FE0000000
1FC0000000
3FC0000000
3F80000000
3F80000000
3F00000000
7F00000000
7F00000000
7F00000000
7F00000000
7F00000000
7F00000000
7F00000000
3F80000000
3F80000000
3FC0000000
1FC0000000
1FE0000000
1FF8000C00
0FFC003E00
07FF81FF00
03FFFFFF80
01FFFFFF80
00FFFFFF00
007FFFFE00
001FFFF800
0003FFC000
0000F80000
0001FC0000
00003E0000
00003E0000
00007E0000
000FFC0000
001FFC0000
001FF80000
0007E00000
ENDCHAR

STARTCHAR Ccaron
ENCODING 200
SWIDTH 780 0
DWIDTH 39 0
BBX 38 46 1 -1
BITMAP
0003F87F80
0003F8FE00
0001FDFC00
0000FFF800
00007FF000
00003FE000
00001F8000
0000000000
00007FE000
0003FFFC00
000FFFFF00
003FFFFFC0
007FFFFFE0
00FFFFFFF0
01FFE03FE0
03FF000FC0
07FE000380
0FF8000100
0FF0000000
1FE0000000
1FC0000000
3FC0000000
3F80000000
3F80000000
3F80000000
7F00000000
7F00000000
7F00000000
7F00000000
7F00000000
7F00000000
7F00000000
3F80000000
3F80000000
3FC0000000
3FC0000000
1FE0000000
1FF8000E00
0FFC003E00
07FF81FF00
03FFFFFF80
01FFFFFFC0
00FFFFFF80
007FFFFE00
001FFFF800
0003FF8000
ENDCHAR

STARTCHAR Eacute
ENCODING 201
SWIDTH 520 0
DWIDTH 26 0
BBX 27 48 0 0
BITMAP
00007F80
00007F00
0000FE00
0001FC00
0003F800
0003F000
0007C000
000F8000
001F0000
00000000
00000000
00000000
03FFFF80
03FFFF80
03FFFF80
03FFFF80
07FFFF80
07FFFF80
07F00000
07F00000
07F00000
07E00000
07E00000
0FE00000
0FE00000
0FE00000
0FFFFF00
0FFFFE00
0FFFFE00
0FFFFE00
0FFFFE00
1FFFFE00
1FC00000
1FC00000
1FC00000
1FC00000
1FC00000
1F800000
1F800000
3F800000
3F800000
3F800000
3FFFFC00
3FFFF800
3FFFF800
3FFFF800
3FFFF800
7FFFF800
ENDCHAR

STARTCHAR Eogonek
ENCODING 202
SWIDTH 520 0
DWIDTH 26 0
BBX 27 46 0 -10
BITMAP
03FFFF80
03FFFF80
03FFFF80
03FFFF80
07FFFF80
07FFFF80
07F00000
07F00000
07F00000
07F00000
07E00000
07E00000
0FE00000
0FE00000
0FFFFF00
0FFFFE00
0FFFFE00
0FFFFE00
0FFFFE00
0FFFFE00
1FC00000
1FC00000
1FC00000
1FC00000
1FC00000
1F800000
1F800000
3F800000
3F800000
3F800000
3FFFFC00
3FFFF800
3FFFF800
3FFFF800
3FFFF800
7FFFF800
0000E000
0003C000
00078000
000F0000
001F0000
001F0000
001FF000
000FF000
000FF000
0003E000
ENDCHAR

STARTCHAR Edieresis
ENCODING 203
SWIDTH 520 0
DWIDTH 26 0
BBX 27 45 0 0
BITMAP
00F01E00
01F83F00
03F87F00
03F87F00
03F87F00
03F07E00
01E03C00
00000000
00000000
03FFFFC0
03FFFFC0
03FFFFC0
03FFFF80
03FFFF80
03FFFF80
07F00000
07F00000
07F00000
07F00000
07F00000
07E00000
07E00000
0FE00000
0FFFFF00
0FFFFF00
0FFFFF00
0FFFFF00
0FFFFE00
0FFFFE00
0FC00000
1FC00000
1FC00000
1FC00000
1FC00000
1FC00000
1FC00000
1F800000
1F800000
3F800000
3FFFFC00
3FFFFC00
3FFFFC00
3FFFFC00
3FFFF800
3FFFF800
ENDCHAR

STARTCHAR Ecaron
ENCODING 204
SWIDTH 520 0
DWIDTH 26 0
BBX 27 45 0 0
BITMAP
03F83FC0
01FC7F00
00FEFE00
007FFC00
003FF800
001FE000
000FC000
00000000
00000000
03FFFF80
03FFFF80
03FFFF80
03FFFF80
07FFFF80
07FFFF80
07F00000
07F00000
07F00000
07E00000
07E00000
0FE00000
0FE00000
0FE00000
0FFFFF00
0FFFFE00
0FFFFE00
0FFFFE00
0FFFFE00
1FFFFE00
1FC00000
1FC00000
1FC00000
1FC00000
1FC00000
1F800000
1F800000
3F800000
3F800000
3F800000
3FFFFC00
3FFFF800
3FFFF800
3FFFF800
3FFFF800
7FFFF800
ENDCHAR

STARTCHAR Iacute
ENCODING 205
SWIDTH 280 0
DWIDTH 14 0
BBX 21 48 0 0
BITMAP
001FE0
003FC0
003F80
007F00
00FE00
01F800
01F000
03E000
07C000
000000
000000
000000
03F800
03F800
03F800
03F000
03F000
03F000
07F000
07F000
07F000
07F000
07E000
07E000
07E000
0FE000
0FE000
0FE000
0FE000
0FC000
0FC000
0FC000
0FC000
1FC000
1FC000
1FC000
1F8000
1F8000
1F8000
1F8000
3F8000
3F8000
3F8000
3F8000
3F0000
3F0000
3F0000
7F0000
ENDCHAR

STARTCHAR Icircumflex
ENCODING 206
SWIDTH 280 0
DWIDTH 14 0
BBX 23 45 -2 0
BITMAP
007E00
00FF00
01FF80
03FFC0
07EFE0
1FC7F0
3F87F8
000000
000000
00FE00
00FE00
00FE00
00FC00
00FC00
00FC00
01FC00
01FC00
01FC00
01FC00
01F800
01F800
01F800
03F800
03F800
03F800
03F800
03F000
03F000
03F000
03F000
07F000
07F000
07F000
07E000
07E000
07E000
07E000
0FE000
0FE000
0FE000
0FE000
0FC000
0FC000
0FC000
1FC000
ENDCHAR

STARTCHAR Dcaron
ENCODING 207
SWIDTH 700 0
DWIDTH 35 0
BBX 34 45 0 0
BITMAP
003F83F800
001FC7F000
000FEFE000
0007FFC000
0003FF8000
0001FE0000
0000FC0000
0000000000
0000000000
03FFF80000
03FFFF0000
03FFFF8000
03FFFFE000
03FFFFF000
03FFFFF800
03F03FFC00
07F007FC00
07F003FE00
07F001FE00
07F000FF00
07F0007F00
07F0007F00
07E0003F80
07E0003F80
0FE0003F80
0FE0003F80
0FE0003F80
0FE0003F80
0FE0003F80
0FC0003F80
0FC0003F80
1FC0007F00
1FC0007F00
1FC000FF00
1FC000FE00
1FC001FE00
1FC003FC00
1F800FFC00
1F807FF800
3FFFFFF000
3FFFFFE000
3FFFFFC000
3FFFFF8000
3FFFFE0000
3FFFF00000
ENDCHAR

STARTCHAR Dcroat
ENCODING 208
SWIDTH 742 0
DWIDTH 37 0
BBX 35 36 1 0
BITMAP
01FFFC0000
01FFFF8000
01FFFFE000
01FFFFF000
01FFFFF800
01FFFFFC00
01F81FFE00
03F803FE00
03F801FF00
03F800FF00
03F8007F80
03F8003F80
03F8003F80
03F0001FC0
03F0001FC0
07F0001FC0
3FFFF01FC0
3FFFF01FC0
3FFFF01FC0
3FFFF01FC0
07E0001FC0
07E0001FC0
0FE0003F80
0FE0003F80
0FE0007F80
0FE0007F00
0FE000FF00
0FE001FE00
0FC007FE00
0FC03FFC00
1FFFFFF800
1FFFFFF000
1FFFFFE000
1FFFFFC000
1FFFFF0000
1FFFF80000
ENDCHAR

STARTCHAR Nacute
ENCODING 209
SWIDTH 740 0
DWIDTH 37 0
BBX 37 48 0 0
BITMAP
000001FC00
000003F800
000007F000
00000FE000
00000FC000
00001F8000
00003F0000
00007E0000
00007C0000
0000000000
0000000000
0000000000
03F80007E0
03F80007E0
03FC000FE0
03FC000FE0
03FE000FE0
03FE000FE0
03FF000FC0
03FF000FC0
07FF800FC0
07FF801FC0
07FFC01FC0
07EFE01FC0
07EFE01FC0
07E7F01FC0
07E7F01F80
07E3F81F80
0FE3F81F80
0FE1FC3F80
0FE1FC3F80
0FC0FE3F80
0FC0FE3F80
0FC07F3F00
0FC03F3F00
1FC03FBF00
1FC01FFF00
1FC01FFF00
1F800FFF00
1F800FFF00
1F8007FE00
1F8007FE00
1F8003FE00
3F8003FE00
3F8001FE00
3F8001FE00
3F0000FE00
3F0000FE00
ENDCHAR

STARTCHAR Ncaron
ENCODING 210
SWIDTH 740 0
DWIDTH 37 0
BBX 37 45 0 0
BITMAP
001FE0FE00
000FE1FC00
0007F3F000
0003FFE000
0001FFC000
0000FF8000
00007F0000
0000000000
0000000000
03F80007E0
03F80007E0
03FC000FE0
03FC000FE0
03FE000FE0
03FE000FE0
03FF000FC0
03FF000FC0
07FF800FC0
07FF801FC0
07FFC01FC0
07EFE01FC0
07EFE01FC0
07E7F01FC0
07E7F01F80
07E3F81F80
0FE3F81F80
0FE1FC3F80
0FE1FC3F80
0FC0FE3F80
0FC0FE3F80
0FC07F3F00
0FC03F3F00
1FC03FBF00
1FC01FFF00
1FC01FFF00
1F800FFF00
1F800FFF00
1F8007FE00
1F8007FE00
1F8003FE00
3F8003FE00
3F8001FE00
3F8001FE00
3F0000FE00
3F0000FE00
ENDCHAR

STARTCHAR Oacute
ENCODING 211
SWIDTH 840 0
DWIDTH 42 0
BBX 40 49 1 -1
BITMAP
000000FE00
000001FC00
000003F800
000003F000
000007E000
00000FC000
00001F8000
00001F0000
00003E0000
0000000000
0000000000
00007FE000
0003FFFC00
000FFFFE00
003FFFFF80
007FFFFFC0
00FFFFFFE0
01FFE07FF0
03FF001FF0
07FC0007F8
07F80003F8
0FF00003FC
1FE00001FC
1FC00001FC
1FC00000FE
3F800000FE
3F800000FE
3F800000FE
3F000000FE
7F000000FE
7F000000FE
7F000000FE
7F000000FC
7F000001FC
7F000001FC
7F000003FC
3F800003F8
3F800007F8
3FC0000FF0
3FC0001FF0
1FF0003FE0
1FF800FFC0
0FFF07FF80
07FFFFFF00
03FFFFFE00
01FFFFFC00
00FFFFF000
003FFFC000
0007FE0000
ENDCHAR

STARTCHAR Ocircumflex
ENCODING 212
SWIDTH 840 0
DWIDTH 42 0
BBX 40 46 1 -1
BITMAP
00000FC000
00001FE000
00003FF000
0000FFF800
0001FDFC00
0003F8FE00
0007F0FF00
0000000000
00007FE000
0003FFFC00
000FFFFE00
003FFFFF80
007FFFFFC0
00FFFFFFE0
01FFE07FF0
03FF001FF0
07FC0007F8
07F80003F8
0FF00003FC
1FE00001FC
1FC00001FC
1FC00000FE
3F800000FE
3F800000FE
3F800000FE
3F000000FE
7F000000FE
7F000000FE
7F000000FE
7F000000FC
7F000001FC
7F000001FC
7F000003FC
3F800003F8
3F800007F8
3FC0000FF0
3FC0001FF0
1FF0003FE0
1FF800FFC0
0FFF07FF80
07FFFFFF00
03FFFFFE00
01FFFFFC00
00FFFFF000
003FFFC000
0007FE0000
ENDCHAR

STARTCHAR Ohungarumlaut
ENCODING 213
SWIDTH 840 0
DWIDTH 42 0
BBX 42 50 1 -1
BITMAP
000003FC7F80
000007F8FE00
000007F1FC00
00000FE1F800
00001F83F000
00003F07E000
00003E0FC000
00007C0F8000
0000F81F0000
0001F03E0000
000000000000
000000000000
0000FFE00000
0003FFFC0000
000FFFFF0000
003FFFFF8000
007FFFFFC000
00FFFFFFE000
01FFE07FF000
03FF001FF000
07FC0007F800
07F80003F800
0FF00003FC00
1FE00001FC00
1FC00001FC00
1FC00000FE00
3F800000FE00
3F800000FE00
3F800000FE00
3F000000FE00
7F000000FE00
7F000000FE00
7F000000FE00
7F000000FC00
7F000001FC00
7F000001FC00
7F000003FC00
3F800003F800
3F800007F800
3FC0000FF000
3FC0001FF000
1FF0003FE000
1FF800FFC000
0FFF07FF8000
07FFFFFF0000
03FFFFFE0000
01FFFFFC0000
00FFFFF00000
003FFFC00000
0007FE000000
ENDCHAR

STARTCHAR Odieresis
ENCODING 214
SWIDTH 840 0
DWIDTH 42 0
BBX 40 46 1 -1
BITMAP
0003C07800
0007E0FC00
000FE1FC00
000FE1FC00
000FE1FC00
0007C1F800
000780F000
0000000000
00007FE000
0003FFFC00
000FFFFE00
003FFFFF80
007FFFFFC0
00FFFFFFE0
01FFC0FFF0
03FF001FF0
07FC000FF8
0FF80003F8
0FF00003FC
1FE00001FC
1FC00001FC
1FC00000FE
3F800000FE
3F800000FE
3F000000FE
7F000000FE
7F000000FE
7F000000FE
7F000000FE
7F000000FC
7F000001FC
7F000001FC
7F000003FC
3F800003F8
3F800007F8
3FC0000FF0
3FC0001FF0
1FE0003FE0
1FF800FFC0
0FFE07FF80
07FFFFFF00
03FFFFFE00
01FFFFFC00
00FFFFF000
003FFFC000
0007FE0000
ENDCHAR

STARTCHAR multiply
ENCODING 215
SWIDTH 600 0
DWIDTH 30 0
BBX 26 22 2 7
BITMAP
0C000C00
1E001E00
3F003F00
3F807F00
1FC0FE00
0FE1FC00
07F3F800
03FFF000
01FFE000
00FFC000
007F8000
007F8000
00FFC000
01FFE000
03FFF000
07F3F800
0FE1FC00
1FC0FE00
3F807F00
3F003F00
1E001E00
0C000C00
ENDCHAR

STARTCHAR Rcaron
ENCODING 216
SWIDTH 580 0
DWIDTH 29 0
BBX 28 45 0 0
BITMAP
01FC1FE0
00FE3F80
007F7F00
003FFE00
001FFC00
000FF800
0007E000
00000000
00000000
03FFE000
03FFFC00
03FFFF00
03FFFF80
03FFFF80
03FFFFC0
03F07FC0
07F01FE0
07F00FE0
07F00FE0
07F00FE0
07F00FE0
07E01FC0
07E07FC0
07FFFFC0
0FFFFF80
0FFFFF00
0FFFFE00
0FFFF800
0FFFC000
0FDFC000
0FCFE000
1FCFE000
1FC7F000
1FC7F000
1FC3F800
1FC3F800
1F81FC00
1F81FC00
1F80FE00
3F80FE00
3F807F00
3F807F00
3F803F80
3F803F80
3F001FC0
ENDCHAR

STARTCHAR Uring
ENCODING 217
SWIDTH 640 0
DWIDTH 32 0
BBX 30 50 2 -1
BITMAP
0001E000
0007F800
0007FC00
000F3C00
000E1C00
000E1C00
000F3C00
0007FC00
0007F800
0001F000
00000000
00000000
00000000
0FE003F8
0FE003F0
0FE007F0
0FE007F0
0FE007F0
0FE007F0
0FC007F0
1FC007F0
1FC007E0
1FC007E0
1FC00FE0
1FC00FE0
1FC00FE0
1F800FE0
1F800FE0
3F800FE0
3F800FC0
3F800FC0
3F801FC0
3F801FC0
3F801FC0
3F001FC0
7F001FC0
7F001F80
7F001F80
7F003F80
7F003F80
7F003F80
7F007F00
3F807F00
3FE1FF00
3FFFFE00
1FFFFE00
0FFFFC00
07FFF800
03FFE000
007F8000
ENDCHAR

STARTCHAR Uacute
ENCODING 218
SWIDTH 640 0
DWIDTH 32 0
BBX 30 49 2 -1
BITMAP
00001FE0
00003FC0
00003F80
00007F00
0000FC00
0001F800
0001F000
0003E000
0007C000
00000000
00000000
00000000
0FE003F8
0FE003F8
0FE003F8
0FE003F0
0FE007F0
0FC007F0
0FC007F0
1FC007F0
1FC007F0
1FC007F0
1FC007E0
1FC007E0
1FC00FE0
1F800FE0
1F800FE0
3F800FE0
3F800FE0
3F800FE0
3F800FC0
3F801FC0
3F001FC0
3F001FC0
7F001FC0
7F001FC0
7F001FC0
7F001F80
7F003F80
7F003F80
7F007F80
3F807F00
3FE1FF00
3FFFFE00
1FFFFE00
0FFFFC00
07FFF800
03FFE000
007F8000
ENDCHAR

STARTCHAR Uhungarumlaut
ENCODING 219
SWIDTH 640 0
DWIDTH 32 0
BBX 37 49 2 -1
BITMAP
00007F8FF0
0000FF1FE0
0001FE3F80
0001FC3F00
0003F07E00
0007E0FC00
000FC1F800
000F81F000
001F03E000
003E07C000
0000000000
0000000000
0FE003F800
0FE003F800
0FE003F800
0FE003F000
0FE007F000
0FC007F000
0FC007F000
1FC007F000
1FC007F000
1FC007F000
1FC007E000
1FC007E000
1FC00FE000
1F800FE000
1F800FE000
3F800FE000
3F800FE000
3F800FE000
3F800FC000
3F801FC000
3F001FC000
3F001FC000
7F001FC000
7F001FC000
7F001FC000
7F001F8000
7F003F8000
7F003F8000
7F007F8000
3F807F0000
3FE1FF0000
3FFFFE0000
1FFFFE0000
0FFFFC0000
07FFF80000
03FFE00000
007F800000
ENDCHAR

STARTCHAR Udieresis
ENCODING 220
SWIDTH 640 0
DWIDTH 32 0
BBX 30 46 2 -1
BITMAP
00780F00
00FC1F80
01FC3F80
01FC3F80
01FC3F80
01F83F00
00F01E00
00000000
00000000
0FE003F8
0FE003F0
0FE003F0
0FE007F0
0FE007F0
0FC007F0
0FC007F0
1FC007F0
1FC007F0
1FC007E0
1FC00FE0
1FC00FE0
1F800FE0
1F800FE0
1F800FE0
3F800FE0
3F800FC0
3F800FC0
3F801FC0
3F801FC0
3F001FC0
3F001FC0
7F001FC0
7F001F80
7F001F80
7F003F80
7F003F80
7F003F80
7F007F00
3F807F00
3FC1FF00
3FFFFE00
1FFFFE00
0FFFFC00
0FFFF800
03FFE000
00FF8000
ENDCHAR

STARTCHAR Yacute
ENCODING 221
SWIDTH 620 0
DWIDTH 31 0
BBX 33 48 0 0
BITMAP
000007F000
00000FE000
00001FC000
00001F8000
00003F0000
00007E0000
0000FC0000
0000F80000
0001F00000
0000000000
0000000000
0000000000
3F8000FF00
3F8001FE00
1F8001FC00
1FC003F800
1FC007F800
0FE00FF000
0FE00FE000
07E01FE000
07F03FC000
07F03F8000
03F87F8000
03F8FF0000
03F9FE0000
01FDFC0000
01FFFC0000
00FFF80000
00FFF00000
00FFF00000
007FE00000
007FC00000
003F800000
003F800000
003F800000
003F000000
003F000000
007F000000
007F000000
007F000000
007F000000
007F000000
007E000000
007E000000
00FE000000
00FE000000
00FE000000
00FE000000
ENDCHAR

STARTCHAR Tcommaaccent
ENCODING 222
SWIDTH 420 0
DWIDTH 21 0
BBX 25 46 0 -10
BITMAP
3FFFFF00
3FFFFF00
3FFFFF00
3FFFFE00
7FFFFE00
7FFFFE00
007E0000
007E0000
00FE0000
00FE0000
00FE0000
00FE0000
00FE0000
00FE0000
00FC0000
00FC0000
01FC0000
01FC0000
01FC0000
01FC0000
01FC0000
01F80000
01F80000
01F80000
03F80000
03F80000
03F80000
03F80000
03F80000
03F00000
03F00000
03F00000
07F00000
07F00000
07F00000
07F00000
00000000
00000000
00000000
03C00000
03C00000
03C00000
07C00000
01800000
03800000
03000000
ENDCHAR

STARTCHAR germandbls
ENCODING 223
SWIDTH 600 0
DWIDTH 30 0
BBX 30 38 0 -1
BITMAP
0003FC00
000FFF00
003FFFC0
007FFFE0
00FFFFE0
00FFFFF0
01FE0FF0
03FC07F0
03F803F0
03F003F0
07F003F0
07F007F0
07F00FE0
07E01FE0
07E3FFC0
07E3FF80
0FE3FE00
0FE3FC00
0FE3FE00
0FE3FF80
0FC03FC0
0FC01FC0
0FC00FE0
1FC00FE0
1FC007E0
1FC007E0
1FC007E0
1F8007E0
1F800FE0
1F800FE0
1F801FE0
3F907FC0
3F9FFFC0
3F9FFF80
3F1FFF00
3F1FFE00
3F3FF800
001FE000
ENDCHAR

STARTCHAR racute
ENCODING 224
SWIDTH 320 0
DWIDTH 16 0
BBX 24 42 -2 0
BITMAP
0003FC
0003F8
0007F0
000FE0
001FC0
001F80
003F00
007E00
00FC00
00F000
000000
000000
000000
000000
0003E0
07E7C0
07EFC0
07FF80
07FF80
07FF80
0FFC00
0FF000
0FF000
0FE000
0FE000
0FE000
0FC000
0FC000
1FC000
1FC000
1FC000
1F8000
1F8000
1F8000
1F8000
3F8000
3F8000
3F8000
3F8000
3F0000
3F0000
3F0000
ENDCHAR

STARTCHAR aacute
ENCODING 225
SWIDTH 660 0
DWIDTH 33 0
BBX 32 43 0 -1
BITMAP
000007F8
00000FE0
00001FC0
00003F80
00003F00
00007E00
0000FC00
0000F800
0001F000
0003E000
00000000
00000000
00000000
00000000
000FE000
003FF8FE
00FFFCFE
01FFFEFE
03FFFFFE
07FFFFFC
07FC1FFC
0FF007FC
1FE003FC
1FC003FC
1FC001FC
3F8001FC
3F8001F8
3F0001F8
3F0001F8
3F0001F8
3F0001F8
3F0003F8
3F8003F8
3F8007F8
1FC007F0
1FE01FF0
1FF03FF0
0FFFFFF0
07FFFFF0
07FFFFF0
01FFF7F0
00FFE7F0
003F0000
ENDCHAR

STARTCHAR acircumflex
ENCODING 226
SWIDTH 660 0
DWIDTH 33 0
BBX 32 39 0 -1
BITMAP
0000FE00
0001FF00
0007FF80
000FFFC0
001FCFE0
003F8FE0
007F07F0
00000000
00000000
00000000
000FE000
003FF8FE
00FFFCFE
01FFFEFE
03FFFFFE
07FFFFFC
07FC1FFC
0FF007FC
1FE003FC
1FC003FC
1FC001FC
3F8001FC
3F8001F8
3F0001F8
3F0001F8
3F0001F8
3F0001F8
3F0003F8
3F8003F8
3F8007F8
1FC007F0
1FE01FF0
1FF03FF0
0FFFFFF0
07FFFFF0
07FFFFF0
01FFF7F0
00FFE7F0
003F0000
ENDCHAR

STARTCHAR abreve
ENCODING 227
SWIDTH 660 0
DWIDTH 33 0
BBX 32 39 0 -1
BITMAP
007C01F0
007E07F0
007FFFE0
003FFFE0
001FFF80
000FFF00
0000E000
00000000
00000000
00000000
0003C000
001FF8FE
007FFCFE
01FFFEFE
03FFFFFE
07FFFFFC
07FC1FFC
0FF007FC
1FE003FC
1FC003FC
1FC001FC
3F8001FC
3F8001F8
3F0001F8
3F0001F8
3F0001F8
3F0001F8
3F0003F8
3F8003F8
3F8007F8
1FC007F0
1FE01FF0
1FF03FF0
0FFFFFF0
07FFFFF0
07FFFFF0
01FFF7F0
00FFE7F0
003F0000
ENDCHAR

STARTCHAR adieresis
ENCODING 228
SWIDTH 660 0
DWIDTH 33 0
BBX 33 39 -1 -1
BITMAP
001E03C000
003F07E000
007F0FE000
007F0FE000
007F0FE000
007E0FC000
003C078000
0000000000
0000000000
0000000000
0007F00000
003FFC7E00
00FFFE7E00
01FFFF7E00
03FFFFFE00
07FFFFFE00
07FC1FFE00
0FF007FE00
1FE003FC00
1FC001FC00
1FC001FC00
3F8001FC00
3F8000FC00
3F8000FC00
3F0000FC00
3F0001FC00
3F0001F800
3F8001F800
3F8003F800
3F8003F800
1FC007F800
1FE00FF800
1FF83FF800
0FFFFFF800
07FFFFF000
03FFFFF000
01FFF3F000
00FFE3F000
001F000000
ENDCHAR

STARTCHAR lacute
ENCODING 229
SWIDTH 240 0
DWIDTH 12 0
BBX 22 49 -1 0
BITMAP
000FF0
001FE0
003F80
003F00
007E00
00FC00
01F800
01F000
03E000
000000
000000
000000
03F800
03F800
03F000
03F000
03F000
03F000
07F000
07F000
07F000
07F000
07E000
07E000
07E000
07E000
0FE000
0FE000
0FE000
0FC000
0FC000
0FC000
0FC000
1FC000
1FC000
1FC000
1FC000
1F8000
1F8000
1F8000
1F8000
3F8000
3F8000
3F8000
3F0000
3F0000
3F0000
3F0000
7F0000
ENDCHAR

STARTCHAR cacute
ENCODING 230
SWIDTH 640 0
DWIDTH 32 0
BBX 31 43 0 -1
BITMAP
00000FF0
00001FE0
00003FC0
00003F00
00007E00
0000FC00
0001F800
0001F000
0003E000
0007C000
00000000
00000000
00000000
00000000
0007FC00
001FFF00
007FFFC0
01FFFFE0
03FFFFF0
07FFFFF8
07FE0FF8
0FF803E0
1FE00180
1FC00000
1FC00000
3F800000
3F800000
3F800000
3F000000
3F000000
3F000000
3F800000
3F800000
3F800000
3FC00300
1FE00780
1FF83FE0
0FFFFFF0
07FFFFE0
07FFFFC0
01FFFF00
00FFFC00
001FE000
ENDCHAR

STARTCHAR ccedilla
ENCODING 231
SWIDTH 640 0
DWIDTH 32 0
BBX 31 38 0 -10
BITMAP
0007FC00
003FFF80
007FFFC0
01FFFFE0
03FFFFF0
07FFFFF8
07FE1FF8
0FF803E0
0FE00180
1FC00000
1FC00000
3F800000
3F800000
3F800000
3F000000
3F000000
3F000000
3F000000
3F800000
3F800000
3FC00300
1FE00F80
1FF83FE0
0FFFFFF0
0FFFFFE0
07FFFFC0
03FFFF00
00FFFC00
001FE000
0003E000
0007F000
0000F800
0000F800
0001F800
003FF000
007FF000
007FE000
001F8000
ENDCHAR

STARTCHAR ccaron
ENCODING 232
SWIDTH 640 0
DWIDTH 32 0
BBX 31 39 0 -1
BITMAP
007F0FE0
003F9FC0
001FBF80
000FFE00
000FFC00
0007F800
0003F000
00000000
00000000
00000000
0007FC00
001FFF00
007FFFC0
01FFFFE0
03FFFFF0
07FFFFF8
07FE0FF8
0FF803E0
1FE00180
1FC00000
1FC00000
3F800000
3F800000
3F800000
3F000000
3F000000
3F000000
3F800000
3F800000
3F800000
3FC00300
1FE00780
1FF83FE0
0FFFFFF0
07FFFFE0
07FFFFC0
01FFFF00
00FFFC00
001FE000
ENDCHAR

STARTCHAR eacute
ENCODING 233
SWIDTH 640 0
DWIDTH 32 0
BBX 31 43 0 -1
BITMAP
00000FF0
00001FE0
00001FC0
00003F80
00007F00
0000FE00
0000FC00
0001F000
0003E000
0007C000
00000000
00000000
00000000
00000000
0007F800
003FFE00
007FFF80
01FFFFC0
03FFFFE0
07FFFFF0
07FC1FF0
0FF007F8
1FE003F8
1FC001F8
1FC001FC
3FFFFFFC
3FFFFFFC
3FFFFFFC
3FFFFFFC
3FFFFFFC
3F000000
3F000000
3F800000
3F800000
1FC00400
1FE00F00
1FF8FFC0
0FFFFFE0
07FFFFC0
07FFFF80
01FFFF00
00FFFC00
003FE000
ENDCHAR

STARTCHAR eogonek
ENCODING 234
SWIDTH 640 0
DWIDTH 32 0
BBX 30 38 0 -10
BITMAP
000FF000
003FFC00
00FFFF00
01FFFF80
03FFFFC0
07FFFFE0
0FF81FE0
1FE00FF0
1FC007F0
3FC003F0
3F8003F8
3FFFFFF8
3FFFFFF8
7FFFFFF8
7FFFFFF8
7FFFFFF8
7F000000
7F000000
3F000000
3F800000
3FC01C00
3FE03F00
1FFFFFC0
0FFFFFC0
0FFFFF80
07FFFE00
01FFFC00
007FF000
00070000
001E0000
003C0000
003C0000
007C0000
007C0000
007FC000
003FC000
003FC000
000F8000
ENDCHAR

STARTCHAR edieresis
ENCODING 235
SWIDTH 640 0
DWIDTH 32 0
BBX 31 39 0 -1
BITMAP
003C0780
007E0FC0
00FE1FC0
00FE1FC0
00FE1FC0
007C1F80
00380F00
00000000
00000000
00000000
0007F800
003FFE00
007FFF80
01FFFFC0
03FFFFE0
07FFFFF0
07FC1FF0
0FF007F8
1FE003F8
1FC003F8
1F8001FC
3FFFFFFC
3FFFFFFC
3FFFFFFC
3FFFFFFC
3FFFFFFC
3F000000
3F000000
3F800000
3F800000
1FC00400
1FE01F00
1FF8FFC0
0FFFFFE0
07FFFFC0
07FFFF80
01FFFF00
00FFFC00
003FE000
ENDCHAR

STARTCHAR ecaron
ENCODING 236
SWIDTH 640 0
DWIDTH 32 0
BBX 31 39 0 -1
BITMAP
007F0FE0
003F9FC0
001FFF80
000FFF00
0007FE00
0003F800
0001F000
00000000
00000000
00000000
0007F800
003FFE00
007FFF80
01FFFFC0
03FFFFE0
07FFFFF0
07FC1FF0
0FF007F8
1FE003F8
1FC001F8
1FC001FC
3FFFFFFC
3FFFFFFC
3FFFFFFC
3FFFFFFC
3FFFFFFC
3F000000
3F000000
3F800000
3F800000
1FC00400
1FE00F00
1FF8FFC0
0FFFFFE0
07FFFFC0
07FFFF80
01FFFF00
00FFFC00
003FE000
ENDCHAR

STARTCHAR iacute
ENCODING 237
SWIDTH 240 0
DWIDTH 12 0
BBX 20 41 -1 0
BITMAP
003FC0
007F80
007F00
00FC00
01F800
03F000
03E000
07C000
0F8000
000000
000000
000000
000000
000000
07E000
07E000
07E000
0FE000
0FE000
0FE000
0FC000
0FC000
0FC000
0FC000
0FC000
1FC000
1FC000
1FC000
1F8000
1F8000
1F8000
1F8000
3F8000
3F8000
3F8000
3F0000
3F0000
3F0000
3F0000
7F0000
7F0000
ENDCHAR

STARTCHAR icircumflex
ENCODING 238
SWIDTH 240 0
DWIDTH 12 0
BBX 23 38 -4 0
BITMAP
007E00
00FF00
01FF80
03FFC0
0FEFE0
1FC7F0
3F83F8
000000
000000
000000
000000
00FC00
00FC00
00FC00
01FC00
01FC00
01FC00
01F800
01F800
01F800
01F800
01F800
03F800
03F800
03F800
03F000
03F000
03F000
03F000
07F000
07F000
07F000
07E000
07E000
07E000
07E000
0FE000
0FE000
ENDCHAR

STARTCHAR dcaron
ENCODING 239
SWIDTH 707 0
DWIDTH 35 0
BBX 41 38 0 -1
BITMAP
0000003F3E00
0000003F3E00
0000007F3E00
0000007F3E00
0000007F7E00
0000007F7C00
0000007E1C00
0000007E1800
0000007E3800
0007E07E7000
003FF8FE2000
007FFCFE0000
01FFFEFE0000
03FFFFFE0000
07FFFFFC0000
07FC1FFC0000
0FF007FC0000
1FE003FC0000
1FC003FC0000
1FC001FC0000
3F8001FC0000
3F8001FC0000
3F0001F80000
3F0001F80000
3F0001F80000
3F0001F80000
3F0003F80000
3F8003F80000
3F8007F80000
1FC007F00000
1FE01FF00000
1FF03FF00000
0FFFFFF00000
07FFFFF00000
07FFFFF00000
01FFF7F00000
00FFE7F00000
003F00000000
ENDCHAR

STARTCHAR dcroat
ENCODING 240
SWIDTH 660 0
DWIDTH 33 0
BBX 38 38 0 -1
BITMAP
0000003F00
0000003F00
0000003F00
00007FFFF0
00007FFFF0
00007FFFF0
00007FFFF0
0000007E00
0000007E00
0003C07E00
001FF8FE00
007FFCFE00
01FFFEFE00
03FFFFFE00
07FFFFFC00
07FC1FFC00
0FF007FC00
1FE003FC00
1FC003FC00
1FC001FC00
3F8001FC00
3F8001F800
3F0001F800
3F0001F800
3F0001F800
3F0001F800
3F0003F800
3F8003F800
3F8007F800
1FC007F000
1FE01FF000
1FF03FF000
0FFFFFF000
07FFFFF000
07FFFFF000
01FFF7F000
00FFE7F000
003F000000
ENDCHAR

STARTCHAR nacute
ENCODING 241
SWIDTH 600 0
DWIDTH 30 0
BBX 28 42 0 0
BITMAP
00001FC0
00003F80
00007F00
0000FE00
0000FC00
0001F800
0003F000
0007E000
0007C000
000F8000
00000000
00000000
00000000
00000000
0000FC00
07F3FF00
07EFFF80
07FFFFC0
07FFFFC0
07FFFFE0
0FFE1FE0
0FF80FE0
0FF00FE0
0FE00FE0
0FE00FE0
0FC00FE0
0FC00FC0
1FC00FC0
1FC00FC0
1FC00FC0
1FC01FC0
1F801FC0
1F801FC0
1F801F80
1F801F80
3F801F80
3F801F80
3F801F80
3F003F80
3F003F80
3F003F80
3F003F00
ENDCHAR

STARTCHAR ncaron
ENCODING 242
SWIDTH 600 0
DWIDTH 30 0
BBX 28 38 0 0
BITMAP
01FE1FC0
00FE3F80
007F7E00
003FFC00
001FF800
000FF000
0007E000
00000000
00000000
00000000
0000FC00
07F3FF00
07EFFF80
07FFFFC0
07FFFFC0
07FFFFE0
0FFE1FE0
0FF80FE0
0FF00FE0
0FE00FE0
0FE00FE0
0FC00FE0
0FC00FC0
1FC00FC0
1FC00FC0
1FC00FC0
1FC01FC0
1F801FC0
1F801FC0
1F801F80
1F801F80
3F801F80
3F801F80
3F801F80
3F003F80
3F003F80
3F003F80
3F003F00
ENDCHAR

STARTCHAR oacute
ENCODING 243
SWIDTH 640 0
DWIDTH 32 0
BBX 31 43 0 -1
BITMAP
00000FE0
00001FC0
00003F80
00003F00
00007E00
0000FC00
0001F800
0001F000
0003E000
0007C000
00000000
00000000
00000000
00000000
0007F800
003FFE00
007FFF80
01FFFFC0
03FFFFC0
07FFFFE0
07FE3FF0
0FF00FF0
0FE007F8
1FC003F8
1FC003F8
3F8001F8
3F8001F8
3F0001F8
3F0001F8
3F0001F8
3F0003F8
3F0003F8
3F8003F0
3F8007F0
3FC00FF0
1FE01FE0
1FF07FE0
0FFFFFC0
0FFFFF80
07FFFF00
03FFFC00
00FFF800
003FC000
ENDCHAR

STARTCHAR ocircumflex
ENCODING 244
SWIDTH 640 0
DWIDTH 32 0
BBX 31 39 0 -1
BITMAP
0001FC00
0003FE00
0007FF00
001FFF80
003F9FC0
007F1FE0
00FE0FE0
00000000
00000000
00000000
0007F800
003FFE00
007FFF80
01FFFFC0
03FFFFC0
07FFFFE0
07FE3FF0
0FF00FF0
0FE007F8
1FC003F8
1FC003F8
3F8001F8
3F8001F8
3F0001F8
3F0001F8
3F0001F8
3F0003F8
3F0003F8
3F8003F0
3F8007F0
3FC00FF0
1FE01FE0
1FF07FE0
0FFFFFC0
0FFFFF80
07FFFF00
03FFFC00
00FFF800
003FC000
ENDCHAR

STARTCHAR ohungarumlaut
ENCODING 245
SWIDTH 640 0
DWIDTH 32 0
BBX 38 43 0 -1
BITMAP
00007F8FF0
00007F1FE0
0000FE1FC0
0001FC3F80
0001F87F00
0003F07E00
0007E0FC00
000FC1F000
000F83E000
001F03C000
0000000000
0000000000
0000000000
0000000000
0007F80000
003FFE0000
007FFF8000
01FFFFC000
03FFFFC000
07FFFFE000
07FE3FF000
0FF00FF000
0FE007F800
1FC003F800
1FC003F800
3F8001F800
3F8001F800
3F0001F800
3F0001F800
3F0001F800
3F0003F800
3F0003F800
3F8003F000
3F8007F000
3FC00FF000
1FE01FE000
1FF07FE000
0FFFFFC000
0FFFFF8000
07FFFF0000
03FFFC0000
00FFF80000
003FC00000
ENDCHAR

STARTCHAR odieresis
ENCODING 246
SWIDTH 640 0
DWIDTH 32 0
BBX 31 39 0 -1
BITMAP
003C0780
007E0FC0
00FE1FC0
00FE1FC0
00FE1FC0
00FC1F80
00380700
00000000
00000000
00000000
0007F800
003FFE00
007FFF80
01FFFFC0
03FFFFC0
07FFFFE0
07FE3FF0
0FF00FF0
0FE007F8
1FC003F8
1FC003F8
3F8001F8
3F8001F8
3F0001F8
3F0001F8
3F0001F8
3F0003F8
3F0003F8
3F8003F0
3F8007F0
3FC00FF0
1FE01FE0
1FF07FE0
0FFFFFC0
0FFFFF80
07FFFF00
03FFFC00
00FFF800
003FC000
ENDCHAR

STARTCHAR divide
ENCODING 247
SWIDTH 600 0
DWIDTH 30 0
BBX 28 29 1 4
BITMAP
003FC000
003FC000
003FC000
003FC000
003FC000
003FC000
003FC000
003FC000
00000000
00000000
00000000
00000000
3FFFFFC0
3FFFFFC0
3FFFFFC0
3FFFFFC0
3FFFFFC0
3FFFFFC0
00000000
00000000
00000000
003FC000
003FC000
003FC000
003FC000
003FC000
003FC000
003FC000
003FC000
ENDCHAR

STARTCHAR rcaron
ENCODING 248
SWIDTH 320 0
DWIDTH 16 0
BBX 24 38 -2 0
BITMAP
1FC1FC
0FE3F0
07F7E0
03FFC0
01FF80
00FF00
007C00
000000
000000
000000
0003E0
07E7C0
07EFC0
07FF80
07FF80
07FF80
0FFC00
0FF000
0FF000
0FE000
0FE000
0FE000
0FC000
0FC000
1FC000
1FC000
1FC000
1F8000
1F8000
1F8000
1F8000
3F8000
3F8000
3F8000
3F8000
3F0000
3F0000
3F0000
ENDCHAR

STARTCHAR uring
ENCODING 249
SWIDTH 600 0
DWIDTH 30 0
BBX 28 44 1 -1
BITMAP
0003C000
000FF000
000FF000
001E7800
001C3800
001C3800
001C3800
001E7800
000FF000
000FF000
0003C000
00000000
00000000
00000000
00000000
00000000
0FC00FC0
0FC00FC0
0FC00FC0
1FC01FC0
1FC01FC0
1FC01FC0
1F801F80
1F801F80
1F801F80
1F801F80
3F801F80
3F803F80
3F803F80
3F803F00
3F003F00
3F003F00
3F003F00
3F007F00
3F007F00
3F807E00
3F80FE00
3FE1FE00
1FFFFC00
1FFFFC00
0FFFF800
07FFF000
03FFC000
007F0000
ENDCHAR

STARTCHAR uacute
ENCODING 250
SWIDTH 600 0
DWIDTH 30 0
BBX 28 42 1 -1
BITMAP
00003FC0
00007F80
00007F00
0000FC00
0001F800
0003F000
0003E000
0007C000
000F8000
00000000
00000000
00000000
00000000
00000000
0FC00FE0
0FC00FE0
0FC00FC0
1FC00FC0
1FC00FC0
1FC00FC0
1F801FC0
1F801FC0
1F801FC0
1F801F80
3F801F80
3F801F80
3F801F80
3F801F80
3F003F80
3F003F80
3F003F80
3F003F00
3F007F00
3F807F00
3F80FF00
3FE1FE00
1FFFFE00
1FFFFC00
0FFFF800
07FFF000
03FFE000
007F0000
ENDCHAR

STARTCHAR uhungarumlaut
ENCODING 251
SWIDTH 600 0
DWIDTH 30 0
BBX 37 42 1 -1
BITMAP
0000FF1FE0
0001FE3FC0
0001FC3F80
0003F87F00
0007F0FC00
000FC1F800
000F83F000
001F03E000
003E07C000
0000000000
0000000000
0000000000
0000000000
0000000000
0FC00FE000
0FC00FE000
0FC00FC000
1FC00FC000
1FC00FC000
1FC00FC000
1F801FC000
1F801FC000
1F801FC000
1F801F8000
3F801F8000
3F801F8000
3F801F8000
3F801F8000
3F003F8000
3F003F8000
3F003F8000
3F003F0000
3F007F0000
3F807F0000
3F80FF0000
3FE1FE0000
1FFFFE0000
1FFFFC0000
0FFFF80000
07FFF00000
03FFE00000
007F000000
ENDCHAR

STARTCHAR udieresis
ENCODING 252
SWIDTH 600 0
DWIDTH 30 0
BBX 29 39 1 -1
BITMAP
00780F00
00FC1F80
01FC3F80
01FC3F80
01FC3F80
01F83F00
00F01E00
00000000
00000000
00000000
00000000
0FC007E0
0FC007E0
0FC007E0
1FC00FE0
1FC00FE0
1FC00FE0
1FC00FC0
1F800FC0
1F800FC0
1F800FC0
3F801FC0
3F801FC0
3F801FC0
3F801F80
3F801F80
3F001F80
3F003F80
3F003F80
3F003F80
3F807F00
3FC07F00
3FE1FF00
1FFFFE00
1FFFFE00
0FFFFC00
07FFF800
01FFE000
007F8000
ENDCHAR

STARTCHAR yacute
ENCODING 253
SWIDTH 580 0
DWIDTH 29 0
BBX 30 51 0 -10
BITMAP
00001FC0
00003F80
00007F00
0000FE00
0000FC00
0001F800
0003F000
0007E000
0007C000
00000000
00000000
00000000
00000000
00000000
7F0003F0
3F0007F0
3F000FE0
3F800FE0
1F801FC0
1F801FC0
1FC03F80
1FC03F80
0FC07F00
0FE0FE00
0FE0FE00
07E1FC00
07F1FC00
07F3F800
03F3F800
03F7F000
03FFE000
01FFE000
01FFC000
01FFC000
00FF8000
00FF8000
00FF0000
007F0000
00FE0000
01FC0000
01FC0000
03F80000
03F80000
07F00000
07F00000
0FE00000
0FC00000
1FC00000
3F800000
3F800000
7F000000
ENDCHAR

STARTCHAR tcommaaccent
ENCODING 254
SWIDTH 300 0
DWIDTH 15 0
BBX 18 47 -1 -10
BITMAP
01FC00
01F800
01F800
01F800
01F800
03F800
03F800
03F800
03F000
03F000
1FFF00
3FFF00
3FFF00
3FFF00
3FFF00
3FFF00
07E000
07E000
07E000
0FE000
0FE000
0FE000
0FE000
0FC000
0FC000
0FC000
0FC000
1FC000
1FC000
1FC000
1FC000
1F8000
1F8000
1F8000
1F8000
3F8000
3F8000
000000
000000
000000
1E0000
1E0000
1E0000
1E0000
0C0000
0C0000
180000
ENDCHAR

STARTCHAR dotaccent
ENCODING 255
SWIDTH 280 0
DWIDTH 14 0
BBX 10 7 5 31
BITMAP
1E00
3F00
7F00
7F00
7F00
7E00
3C00
ENDCHAR
ENDFONT
